<svg width="21" height="23" viewBox="0 0 21 23" fill="none" xmlns="http://www.w3.org/2000/svg">
<path d="M3.92701 20.9493C4.66743 21.8697 5.77978 22.7609 7.06009 22.7609C7.78851 22.7609 8.40724 22.4181 9.07225 22.1679C9.68472 21.9421 10.3322 21.826 10.985 21.8251C11.6148 21.8215 12.2389 21.9439 12.8206 22.1851C13.1291 22.3153 13.4342 22.4541 13.7479 22.5741C14.0661 22.697 14.4042 22.7603 14.7454 22.7609C15.3764 22.7537 15.9906 22.556 16.5073 22.1936C18.0087 21.1653 19.1211 19.3588 19.9095 17.7768C19.9883 17.6191 20.0637 17.4597 20.1391 17.3021C20.2642 17.0381 20.0671 16.7039 19.7175 16.5119C18.175 15.6652 17.2717 14.3558 17.1209 12.5493C16.9701 10.7428 17.6728 9.31683 19.0833 8.28161L19.361 8.05366C19.5153 7.92683 19.4313 7.57547 19.1416 7.30124C18.0747 6.25059 16.6453 5.64938 15.1481 5.62158C14.8576 5.62172 14.5675 5.6458 14.2809 5.69357C12.9783 5.91638 11.9328 6.53682 10.7056 6.53682C10.3333 6.53721 9.96318 6.47938 9.60871 6.36543C8.58035 6.03635 7.55884 5.62158 6.46535 5.62158C6.34538 5.62158 6.22369 5.62158 6.102 5.63701C4.75392 5.78067 3.49515 6.37983 2.53358 7.33552C0.637971 9.20371 0.368884 12.1054 0.84193 14.558C1.29612 16.9336 2.41361 19.0743 3.92701 20.9493Z" fill="#111D31"/>
<path d="M10.5785 5.62178C10.603 5.62396 10.6277 5.62396 10.6522 5.62178C14.2737 4.94649 14.6697 2.14934 14.692 1.12784C14.6927 1.08654 14.685 1.04552 14.6691 1.00735C14.6533 0.969192 14.6298 0.934709 14.6 0.906066C14.5703 0.877423 14.5349 0.855239 14.4961 0.840904C14.4574 0.826568 14.4161 0.820391 14.3749 0.822759C14.3443 0.822728 14.3138 0.826178 14.284 0.833042C10.6265 1.67973 10.246 4.31747 10.2357 5.30299C10.2366 5.34665 10.2462 5.3897 10.264 5.42957C10.2819 5.46943 10.3076 5.50531 10.3395 5.53505C10.3715 5.56479 10.4092 5.5878 10.4502 5.6027C10.4913 5.6176 10.5349 5.62409 10.5785 5.62178Z" fill="#111D31"/>
</svg>
