<svg width="31" height="34" viewBox="0 0 31 34" fill="none" xmlns="http://www.w3.org/2000/svg">
<path d="M5.89682 30.8052C7.01674 32.1973 8.69921 33.5454 10.6357 33.5454C11.7375 33.5454 12.6734 33.0269 13.6792 32.6484C14.6056 32.3068 15.585 32.1313 16.5723 32.1299C17.5249 32.1244 18.4689 32.3095 19.3488 32.6743C19.8154 32.8714 20.2769 33.0813 20.7513 33.2628C21.2327 33.4486 21.7441 33.5444 22.2601 33.5454C23.2146 33.5344 24.1435 33.2353 24.9251 32.6873C27.196 31.1319 28.8785 28.3995 30.071 26.0067C30.1902 25.7682 30.3043 25.5271 30.4184 25.2886C30.6076 24.8893 30.3095 24.3838 29.7806 24.0935C27.4475 22.8128 26.0813 20.8322 25.8531 18.0998C25.625 15.3674 26.6879 13.2106 28.8215 11.6448L29.2414 11.3C29.4747 11.1081 29.3477 10.5767 28.9096 10.1619C27.2958 8.57274 25.1338 7.66339 22.8693 7.62134C22.4298 7.62155 21.9911 7.65797 21.5575 7.73022C19.5873 8.06723 18.0059 9.00568 16.1498 9.00568C15.5866 9.00627 15.0268 8.9188 14.4906 8.74644C12.9352 8.2487 11.3901 7.62134 9.73617 7.62134C9.5547 7.62134 9.37064 7.62134 9.18658 7.64467C7.14755 7.86197 5.24361 8.76822 3.78919 10.2137C0.921993 13.0395 0.514986 17.4284 1.23049 21.1381C1.91748 24.7312 3.60772 27.9691 5.89682 30.8052Z" fill="white"/>
<path d="M15.9575 7.62178C15.9946 7.62508 16.0319 7.62508 16.069 7.62178C21.5467 6.60038 22.1456 2.36957 22.1793 0.824499C22.1804 0.762025 22.1687 0.699982 22.1448 0.64226C22.1208 0.584537 22.0853 0.53238 22.0402 0.489056C21.9952 0.445733 21.9417 0.412178 21.8831 0.390495C21.8245 0.368813 21.7621 0.359469 21.6997 0.363051C21.6534 0.363004 21.6073 0.368223 21.5623 0.378605C16.0301 1.65925 15.4546 5.64896 15.439 7.1396C15.4403 7.20564 15.4549 7.27075 15.4819 7.33105C15.5088 7.39136 15.5477 7.44561 15.596 7.4906C15.6444 7.53559 15.7013 7.57038 15.7634 7.59292C15.8255 7.61546 15.8915 7.62527 15.9575 7.62178Z" fill="white"/>
</svg>
