<svg width="30" height="30" viewBox="0 0 30 30" fill="none" xmlns="http://www.w3.org/2000/svg">
<g filter="url(#filter0_d_1_656)">
<circle cx="15.3449" cy="12.0676" r="10.4032" fill="white"/>
</g>
<path d="M15.3506 20.0782L15.3484 11.8901L21.8909 8.10798V16.2869L15.3506 20.0782Z" fill="#666AF6"/>
<path d="M15.3511 20.0777L15.3489 11.8896L8.80646 8.10746V16.2864L15.3511 20.0777Z" fill="#666AF6"/>
<path d="M8.80618 8.10799L15.3487 11.8901L21.8911 8.10799L15.3509 4.32668L8.80618 8.10799Z" fill="#B7C5F4"/>
<path d="M19.4583 11.8953L17.9992 12.7423V10.3526L19.4583 9.50509V11.8953Z" fill="#464648"/>
<path d="M19.4583 9.50509L12.925 5.72792L11.4631 6.57271L17.9992 10.3557L19.4583 9.50509Z" fill="#656769"/>
<path d="M16.2148 18.9066V18.4856L18.4111 17.2118V17.6389L16.2148 18.9066Z" fill="#464648"/>
<path d="M16.2148 18.154V17.733L18.4111 16.4592V16.8863L16.2148 18.154Z" fill="#464648"/>
<path d="M20.383 15.0878V16.548L21.4335 15.94V14.479L20.383 15.0878Z" fill="#464648"/>
<path d="M10.2454 14.935V16.457L9.19507 15.8498V14.3281L10.2454 14.935Z" fill="#464648"/>
<path d="M11.6787 15.7665V17.2884L10.6284 16.6813V15.1596L11.6787 15.7665Z" fill="#464648"/>
<path d="M11.3538 10.4869V12.674L9.19507 11.4265V9.23684L11.3538 10.4869Z" fill="white"/>
<path d="M11.0897 10.9343V10.5783L9.39096 9.59883V9.94903L11.0897 10.9343Z" fill="#464648"/>
<defs>
<filter id="filter0_d_1_656" x="0.959451" y="0.867922" width="28.7709" height="28.7709" filterUnits="userSpaceOnUse" color-interpolation-filters="sRGB">
<feFlood flood-opacity="0" result="BackgroundImageFix"/>
<feColorMatrix in="SourceAlpha" type="matrix" values="0 0 0 0 0 0 0 0 0 0 0 0 0 0 0 0 0 0 127 0" result="hardAlpha"/>
<feOffset dy="3.18578"/>
<feGaussianBlur stdDeviation="1.99111"/>
<feComposite in2="hardAlpha" operator="out"/>
<feColorMatrix type="matrix" values="0 0 0 0 0.641667 0 0 0 0 0.641667 0 0 0 0 0.641667 0 0 0 0.25 0"/>
<feBlend mode="normal" in2="BackgroundImageFix" result="effect1_dropShadow_1_656"/>
<feBlend mode="normal" in="SourceGraphic" in2="effect1_dropShadow_1_656" result="shape"/>
</filter>
</defs>
</svg>
