<svg width="30" height="29" viewBox="0 0 30 29" fill="none" xmlns="http://www.w3.org/2000/svg">
<g filter="url(#filter0_d_1_671)">
<circle cx="15.3449" cy="11.3643" r="10.4032" fill="white"/>
</g>
<path d="M15.3506 19.3749L15.3484 11.1868L21.8909 7.40467V15.5836L15.3506 19.3749Z" fill="#666AF6"/>
<path d="M15.3511 19.3746L15.3489 11.1865L8.80646 7.4044V15.5833L15.3511 19.3746Z" fill="#666AF6"/>
<path d="M8.80618 7.40465L15.3487 11.1868L21.8911 7.40465L15.3509 3.62334L8.80618 7.40465Z" fill="#B7C5F4"/>
<path d="M19.4583 11.192L17.9992 12.039V9.6493L19.4583 8.80175V11.192Z" fill="#464648"/>
<path d="M19.4583 8.80175L12.925 5.02459L11.4631 5.86937L17.9992 9.65234L19.4583 8.80175Z" fill="#656769"/>
<path d="M16.2148 18.2033V17.7823L18.4111 16.5085V16.9356L16.2148 18.2033Z" fill="#464648"/>
<path d="M16.2148 17.4507V17.0297L18.4111 15.7559V16.183L16.2148 17.4507Z" fill="#464648"/>
<path d="M20.383 14.3844V15.8447L21.4335 15.2367V13.7756L20.383 14.3844Z" fill="#464648"/>
<path d="M10.2454 14.2317V15.7537L9.19507 15.1465V13.6248L10.2454 14.2317Z" fill="#464648"/>
<path d="M11.6787 15.0632V16.5851L10.6284 15.9779V14.4563L11.6787 15.0632Z" fill="#464648"/>
<path d="M11.3538 9.78352V11.9707L9.19507 10.7232V8.5335L11.3538 9.78352Z" fill="white"/>
<path d="M11.0897 10.231V9.87502L9.39096 8.89552V9.24572L11.0897 10.231Z" fill="#464648"/>
<defs>
<filter id="filter0_d_1_671" x="0.959451" y="0.164675" width="28.7709" height="28.7709" filterUnits="userSpaceOnUse" color-interpolation-filters="sRGB">
<feFlood flood-opacity="0" result="BackgroundImageFix"/>
<feColorMatrix in="SourceAlpha" type="matrix" values="0 0 0 0 0 0 0 0 0 0 0 0 0 0 0 0 0 0 127 0" result="hardAlpha"/>
<feOffset dy="3.18578"/>
<feGaussianBlur stdDeviation="1.99111"/>
<feComposite in2="hardAlpha" operator="out"/>
<feColorMatrix type="matrix" values="0 0 0 0 0.641667 0 0 0 0 0.641667 0 0 0 0 0.641667 0 0 0 0.25 0"/>
<feBlend mode="normal" in2="BackgroundImageFix" result="effect1_dropShadow_1_671"/>
<feBlend mode="normal" in="SourceGraphic" in2="effect1_dropShadow_1_671" result="shape"/>
</filter>
</defs>
</svg>
