<svg width="30" height="30" viewBox="0 0 30 30" fill="none" xmlns="http://www.w3.org/2000/svg">
<g filter="url(#filter0_d_1_641)">
<circle cx="15.3449" cy="11.9386" r="10.4032" fill="white"/>
</g>
<path d="M15.3506 19.9492L15.3484 11.7611L21.8909 7.97898V16.1579L15.3506 19.9492Z" fill="#666AF6"/>
<path d="M15.3511 19.9489L15.3489 11.7608L8.80646 7.97868V16.1576L15.3511 19.9489Z" fill="#666AF6"/>
<path d="M8.80618 7.97896L15.3487 11.7611L21.8911 7.97896L15.3509 4.19765L8.80618 7.97896Z" fill="#B7C5F4"/>
<path d="M19.4583 11.7663L17.9992 12.6133V10.2236L19.4583 9.37606V11.7663Z" fill="#464648"/>
<path d="M19.4583 9.37607L12.925 5.5989L11.4631 6.44368L17.9992 10.2267L19.4583 9.37607Z" fill="#656769"/>
<path d="M16.2148 18.7776V18.3566L18.4111 17.0828V17.5099L16.2148 18.7776Z" fill="#464648"/>
<path d="M16.2148 18.025V17.604L18.4111 16.3301V16.7572L16.2148 18.025Z" fill="#464648"/>
<path d="M20.383 14.9587V16.419L21.4335 15.811V14.3499L20.383 14.9587Z" fill="#464648"/>
<path d="M10.2454 14.806V16.328L9.19507 15.7208V14.1992L10.2454 14.806Z" fill="#464648"/>
<path d="M11.6787 15.6375V17.1594L10.6284 16.5522V15.0306L11.6787 15.6375Z" fill="#464648"/>
<path d="M11.3538 10.3578V12.545L9.19507 11.2975V9.10781L11.3538 10.3578Z" fill="white"/>
<path d="M11.0897 10.8053V10.4493L9.39096 9.46983V9.82003L11.0897 10.8053Z" fill="#464648"/>
<defs>
<filter id="filter0_d_1_641" x="0.959451" y="0.738894" width="28.7709" height="28.7709" filterUnits="userSpaceOnUse" color-interpolation-filters="sRGB">
<feFlood flood-opacity="0" result="BackgroundImageFix"/>
<feColorMatrix in="SourceAlpha" type="matrix" values="0 0 0 0 0 0 0 0 0 0 0 0 0 0 0 0 0 0 127 0" result="hardAlpha"/>
<feOffset dy="3.18578"/>
<feGaussianBlur stdDeviation="1.99111"/>
<feComposite in2="hardAlpha" operator="out"/>
<feColorMatrix type="matrix" values="0 0 0 0 0.641667 0 0 0 0 0.641667 0 0 0 0 0.641667 0 0 0 0.25 0"/>
<feBlend mode="normal" in2="BackgroundImageFix" result="effect1_dropShadow_1_641"/>
<feBlend mode="normal" in="SourceGraphic" in2="effect1_dropShadow_1_641" result="shape"/>
</filter>
</defs>
</svg>
