<svg width="310" height="38" viewBox="0 0 310 38" fill="none" xmlns="http://www.w3.org/2000/svg">
<path fill-rule="evenodd" clip-rule="evenodd" d="M193.752 22.8733C155.534 23.337 117.297 25.1764 79.2459 28.4644C61.1549 30.0279 40.146 29.8325 22.6 35.163C21.7258 35.4312 21.8923 36.236 21.9112 36.3164C21.949 36.4812 22.108 37.0292 22.8044 37.056C22.8801 37.0598 23.4137 36.9832 23.6181 36.9564C28.7994 36.2666 33.9617 35.4619 39.1468 34.8104C57.0485 32.5533 75.0032 30.848 92.9844 29.3535C116.851 27.3684 140.922 26.3107 164.852 25.483C177.951 25.0308 191.364 25.6324 204.505 24.6974C209.33 24.6706 214.156 24.6668 218.981 24.6821C239.154 24.755 259.304 25.529 279.442 26.5905C285.918 26.9316 290.857 27.2995 297.196 27.5486C299.603 27.6444 303.422 27.7095 306.079 27.7517C306.469 27.7593 307.464 27.7669 307.877 27.7708C307.918 27.7784 307.96 27.7784 308.005 27.7784C308.164 27.7784 308.24 27.7669 308.255 27.7669C309.156 27.6328 309.073 26.7706 309.05 26.6403C309.046 26.6135 308.91 25.8854 308.134 25.8585C307.949 25.8509 306.62 25.8433 306.109 25.8356C303.467 25.7935 299.664 25.7283 297.268 25.6363C290.94 25.3873 286.005 25.0194 279.541 24.6783C259.372 23.6168 239.192 22.8389 218.989 22.7661C216.521 22.7584 214.05 22.7546 211.582 22.7584C211.499 22.54 211.313 22.2947 210.905 22.1874C210.522 22.0878 207.786 21.9997 206.73 21.9115C198.915 21.2601 199.146 21.2907 190.547 20.758C177.524 19.9495 175.54 19.7654 161.995 19.4244C137.39 18.8036 112.775 18.8535 88.1664 18.9148C76.0175 18.9493 63.0094 19.7808 50.675 18.2288C54.7398 17.746 58.8197 17.3934 62.8921 16.991C76.7971 15.6191 90.7135 14.7684 104.675 14.1705C138.166 12.7373 171.71 12.1664 205.19 14.1208C198.063 14.1898 190.94 14.3507 183.814 14.4541C154.804 14.8833 125.514 14.5615 96.5647 16.7879C96.0462 16.8301 95.6564 17.2899 95.6942 17.8149C95.7321 18.3437 96.19 18.7385 96.7085 18.7002C125.62 16.4737 154.868 16.7994 183.84 16.3702C194.604 16.2131 205.364 15.9295 216.128 16.0138C219.821 16.0445 223.515 16.1825 227.209 16.2284C227.94 16.2399 229.821 16.3856 230.089 16.3243C230.684 16.1901 230.812 15.7456 230.85 15.5271C230.869 15.3968 230.93 14.6457 230.021 14.3775C223.822 12.5457 212.381 12.63 206.356 12.2698C172.463 10.2388 138.503 10.8059 104.596 12.2545C90.6 12.8561 76.6495 13.7107 62.7066 15.0865C57.8357 15.5655 52.9535 15.9794 48.1014 16.6155C47.318 16.719 45.5581 16.8684 44.7066 17.0256C44.3508 17.0907 44.0934 17.1826 43.9799 17.2478C43.5371 17.5007 43.4576 17.8686 43.4576 18.1177C43.4538 18.3093 43.5333 18.9837 44.4606 19.1677C58.5889 21.9689 73.9624 20.8692 88.1702 20.8308C112.763 20.7695 137.36 20.7196 161.949 21.3404C175.461 21.6815 177.436 21.8617 190.433 22.6703C191.716 22.7469 192.802 22.8158 193.752 22.8733Z" fill="url(#paint0_linear_1_317)"/>
<defs>
<linearGradient id="paint0_linear_1_317" x1="21.8864" y1="24.0027" x2="309.063" y2="24.0027" gradientUnits="userSpaceOnUse">
<stop stop-color="#E2E2ED"/>
<stop offset="1" stop-color="#666AF6"/>
</linearGradient>
</defs>
</svg>
