<svg width="17" height="17" viewBox="0 0 17 17" fill="none" xmlns="http://www.w3.org/2000/svg">
<g clip-path="url(#clip0_1_136)">
<path d="M1.41667 4.95817L4.54042 1.83442C4.67221 1.70184 4.82894 1.59666 5.00157 1.52493C5.1742 1.45321 5.35932 1.41636 5.54626 1.4165H11.4538C11.6407 1.41636 11.8258 1.45321 11.9984 1.52493C12.1711 1.59666 12.3278 1.70184 12.4596 1.83442L15.5833 4.95817" stroke="#111D31" stroke-width="1.23958" stroke-linecap="round" stroke-linejoin="round"/>
<path d="M2.83333 8.5V14.1667C2.83333 14.5424 2.98258 14.9027 3.24826 15.1684C3.51394 15.4341 3.87427 15.5833 4.24999 15.5833H12.75C13.1257 15.5833 13.4861 15.4341 13.7517 15.1684C14.0174 14.9027 14.1667 14.5424 14.1667 14.1667V8.5" stroke="#111D31" stroke-width="1.23958" stroke-linecap="round" stroke-linejoin="round"/>
<path d="M10.625 15.5835V12.7502C10.625 12.3744 10.4757 12.0141 10.2101 11.7484C9.94439 11.4828 9.58406 11.3335 9.20833 11.3335H7.79167C7.41594 11.3335 7.05561 11.4828 6.78993 11.7484C6.52426 12.0141 6.375 12.3744 6.375 12.7502V15.5835" stroke="#111D31" stroke-width="1.23958" stroke-linecap="round" stroke-linejoin="round"/>
<path d="M1.41667 4.9585H15.5833" stroke="#111D31" stroke-width="1.23958" stroke-linecap="round" stroke-linejoin="round"/>
<path d="M15.5833 4.9585V7.0835C15.5833 7.45922 15.4341 7.81955 15.1684 8.08523C14.9027 8.35091 14.5424 8.50016 14.1667 8.50016C13.7528 8.47738 13.3576 8.32077 13.0404 8.05391C12.9559 7.99284 12.8543 7.95996 12.75 7.95996C12.6457 7.95996 12.5441 7.99284 12.4596 8.05391C12.1424 8.32077 11.7472 8.47738 11.3333 8.50016C10.9195 8.47738 10.5242 8.32077 10.2071 8.05391C10.1226 7.99284 10.0209 7.95996 9.91667 7.95996C9.8124 7.95996 9.71077 7.99284 9.62626 8.05391C9.30911 8.32077 8.91386 8.47738 8.50001 8.50016C8.08615 8.47738 7.6909 8.32077 7.37376 8.05391C7.28924 7.99284 7.18762 7.95996 7.08334 7.95996C6.97906 7.95996 6.87744 7.99284 6.79292 8.05391C6.47578 8.32077 6.08053 8.47738 5.66667 8.50016C5.25282 8.47738 4.85756 8.32077 4.54042 8.05391C4.4559 7.99284 4.35428 7.95996 4.25001 7.95996C4.14573 7.95996 4.04411 7.99284 3.95959 8.05391C3.64245 8.32077 3.24719 8.47738 2.83334 8.50016C2.45762 8.50016 2.09728 8.35091 1.8316 8.08523C1.56593 7.81955 1.41667 7.45922 1.41667 7.0835V4.9585" stroke="#111D31" stroke-width="1.23958" stroke-linecap="round" stroke-linejoin="round"/>
</g>
<defs>
<clipPath id="clip0_1_136">
<rect width="17" height="17" fill="white"/>
</clipPath>
</defs>
</svg>
