<svg width="20" height="20" viewBox="0 0 20 20" fill="none" xmlns="http://www.w3.org/2000/svg">
<path d="M17.5 2.5H2.50002C2.03978 2.5 1.66669 2.8731 1.66669 3.33333V5.83333C1.66669 6.29357 2.03978 6.66667 2.50002 6.66667H17.5C17.9603 6.66667 18.3334 6.29357 18.3334 5.83333V3.33333C18.3334 2.8731 17.9603 2.5 17.5 2.5Z" stroke="black" stroke-width="1.58333" stroke-linecap="round" stroke-linejoin="round"/>
<path d="M3.33331 6.66663V15.8333C3.33331 16.2753 3.50891 16.6992 3.82147 17.0118C4.13403 17.3244 4.55795 17.5 4.99998 17.5H15C15.442 17.5 15.8659 17.3244 16.1785 17.0118C16.4911 16.6992 16.6666 16.2753 16.6666 15.8333V6.66663" stroke="black" stroke-width="1.58333" stroke-linecap="round" stroke-linejoin="round"/>
<path d="M8.33331 10H11.6666" stroke="black" stroke-width="1.58333" stroke-linecap="round" stroke-linejoin="round"/>
</svg>
