<svg width="40" height="41" viewBox="0 0 40 41" fill="none" xmlns="http://www.w3.org/2000/svg">
<path d="M29.1667 35.4405H15C12.8365 35.44 10.7157 34.8378 8.87467 33.7013C7.03364 32.5648 5.54491 30.9388 4.57483 29.0049C3.60475 27.071 3.19153 24.9054 3.38136 22.7502C3.57119 20.595 4.35659 18.535 5.64979 16.8005C6.94298 15.0659 8.69304 13.7252 10.7044 12.928C12.7157 12.1308 14.9091 11.9086 17.0395 12.2863C19.1698 12.6639 21.1532 13.6265 22.7679 15.0665C24.3827 16.5065 25.5652 18.3671 26.1834 20.4405H29.1667C30.1516 20.4405 31.1269 20.6345 32.0368 21.0114C32.9468 21.3883 33.7736 21.9408 34.47 22.6372C35.1664 23.3337 35.7189 24.1604 36.0958 25.0704C36.4727 25.9803 36.6667 26.9556 36.6667 27.9405C36.6667 28.9254 36.4727 29.9007 36.0958 30.8106C35.7189 31.7206 35.1664 32.5474 34.47 33.2438C33.7736 33.9403 32.9468 34.4927 32.0368 34.8696C31.1269 35.2465 30.1516 35.4405 29.1667 35.4405Z" fill="#666AF6" stroke="#666AF6" stroke-width="2.67704" stroke-linecap="round" stroke-linejoin="round"/>
<path d="M36.6666 17.1072C36.6666 15.7811 36.1398 14.5093 35.2021 13.5717C34.2644 12.634 32.9926 12.1072 31.6666 12.1072H27.9882C27.4228 10.1177 26.2014 8.37785 24.5225 7.17007C22.8435 5.96229 20.8056 5.35756 18.7396 5.45409C16.6736 5.55061 14.7009 6.34272 13.1419 7.70178C11.5828 9.06083 10.529 10.907 10.1516 12.9405" stroke="#666AF6" stroke-width="2.67704" stroke-linecap="round" stroke-linejoin="round"/>
</svg>
