<svg width="40" height="41" viewBox="0 0 40 41" fill="none" xmlns="http://www.w3.org/2000/svg">
<path d="M32.3333 25.1062C33.6667 27.6062 35 28.6062 35 28.6062H5C5 28.6062 10 25.2729 10 13.6062C10 8.1062 14.5 3.6062 20 3.6062C21.1667 3.6062 22.1667 3.77287 23.1667 4.1062" stroke="#666AF6" stroke-width="2.51285" stroke-linecap="round" stroke-linejoin="round"/>
<path d="M17.1667 35.2729C17.4456 35.7804 17.8557 36.2035 18.3541 36.4983C18.8525 36.793 19.421 36.9485 20 36.9485C20.579 36.9485 21.1474 36.793 21.6458 36.4983C22.1442 36.2035 22.5544 35.7804 22.8333 35.2729" stroke="#666AF6" stroke-width="2.51285" stroke-linecap="round" stroke-linejoin="round"/>
<path d="M30 18.6062C32.7614 18.6062 35 16.3676 35 13.6062C35 10.8448 32.7614 8.6062 30 8.6062C27.2386 8.6062 25 10.8448 25 13.6062C25 16.3676 27.2386 18.6062 30 18.6062Z" fill="#666AF6" stroke="#666AF6" stroke-width="2.51285" stroke-linecap="round" stroke-linejoin="round"/>
</svg>
