<svg width="40" height="41" viewBox="0 0 40 41" fill="none" xmlns="http://www.w3.org/2000/svg">
<path d="M5 5.27295V35.2729H35" stroke="#666AF6" stroke-width="2.50359" stroke-linecap="round" stroke-linejoin="round"/>
<path d="M16.6667 16.9397H13.3333C12.4128 16.9397 11.6667 17.6859 11.6667 18.6064V26.9397C11.6667 27.8602 12.4128 28.6064 13.3333 28.6064H16.6667C17.5871 28.6064 18.3333 27.8602 18.3333 26.9397V18.6064C18.3333 17.6859 17.5871 16.9397 16.6667 16.9397Z" fill="#666AF6" stroke="#666AF6" stroke-width="2.50359" stroke-linecap="round" stroke-linejoin="round"/>
<path d="M30 8.6062H26.6667C25.7462 8.6062 25 9.35239 25 10.2729V26.9395C25 27.86 25.7462 28.6062 26.6667 28.6062H30C30.9205 28.6062 31.6667 27.86 31.6667 26.9395V10.2729C31.6667 9.35239 30.9205 8.6062 30 8.6062Z" stroke="#666AF6" stroke-width="2.50359" stroke-linecap="round" stroke-linejoin="round"/>
</svg>
