<svg width="40" height="41" viewBox="0 0 40 41" fill="none" xmlns="http://www.w3.org/2000/svg">
<path d="M23.3333 15.2729C23.3333 16.1569 22.9822 17.0048 22.357 17.6299C21.7319 18.255 20.8841 18.6062 20 18.6062H10L3.33334 25.2729V6.93953C3.33334 5.1062 4.83334 3.6062 6.66668 3.6062H20C20.8841 3.6062 21.7319 3.95739 22.357 4.58251C22.9822 5.20763 23.3333 6.05548 23.3333 6.93953V15.2729Z" fill="#666AF6" stroke="#666AF6" stroke-width="2.5153" stroke-linecap="round" stroke-linejoin="round"/>
<path d="M30 15.2729H33.3334C34.2174 15.2729 35.0653 15.6241 35.6904 16.2493C36.3155 16.8744 36.6667 17.7222 36.6667 18.6063V36.9396L30 30.2729H20C19.116 30.2729 18.2681 29.9218 17.643 29.2966C17.0179 28.6715 16.6667 27.8237 16.6667 26.9396V25.2729" stroke="#666AF6" stroke-width="2.5153" stroke-linecap="round" stroke-linejoin="round"/>
</svg>
