<svg width="20" height="20" viewBox="0 0 20 20" fill="none" xmlns="http://www.w3.org/2000/svg">
<g clip-path="url(#clip0_1_838)">
<path d="M6.66665 18.3333C7.12688 18.3333 7.49998 17.9602 7.49998 17.5C7.49998 17.0397 7.12688 16.6666 6.66665 16.6666C6.20641 16.6666 5.83331 17.0397 5.83331 17.5C5.83331 17.9602 6.20641 18.3333 6.66665 18.3333Z" stroke="black" stroke-width="1.58333" stroke-linecap="round" stroke-linejoin="round"/>
<path d="M15.8333 18.3333C16.2936 18.3333 16.6667 17.9602 16.6667 17.5C16.6667 17.0397 16.2936 16.6666 15.8333 16.6666C15.3731 16.6666 15 17.0397 15 17.5C15 17.9602 15.3731 18.3333 15.8333 18.3333Z" stroke="black" stroke-width="1.58333" stroke-linecap="round" stroke-linejoin="round"/>
<path d="M1.70837 1.70837H3.37504L5.59171 12.0584C5.67302 12.4374 5.88393 12.7763 6.18813 13.0166C6.49233 13.2569 6.8708 13.3837 7.25837 13.375H15.4084C15.7877 13.3744 16.1554 13.2444 16.4509 13.0066C16.7463 12.7687 16.9518 12.4371 17.0334 12.0667L18.4084 5.87504H4.26671" stroke="black" stroke-width="1.58333" stroke-linecap="round" stroke-linejoin="round"/>
</g>
<defs>
<clipPath id="clip0_1_838">
<rect width="20" height="20" fill="white"/>
</clipPath>
</defs>
</svg>
