<svg width="40" height="41" viewBox="0 0 40 41" fill="none" xmlns="http://www.w3.org/2000/svg">
<path d="M11.6667 27.4398C15.3333 27.4398 18.3333 24.3898 18.3333 20.6898C18.3333 18.7564 17.3833 16.9231 15.4833 15.3731C13.5833 13.8231 12.15 11.5231 11.6667 9.10645C11.1833 11.5231 9.76667 13.8398 7.85 15.3731C5.93333 16.9064 5 18.7731 5 20.6898C5 24.3898 8 27.4398 11.6667 27.4398Z" fill="#666AF6" stroke="#666AF6" stroke-width="2.5846" stroke-linecap="round" stroke-linejoin="round"/>
<path d="M20.9333 11.2731C22.0796 9.4416 22.8921 7.42147 23.3333 5.3064C24.1666 9.47306 26.6666 13.4731 30 16.1397C33.3333 18.8064 35 21.9731 35 25.3064C35.0095 27.6102 34.3348 29.865 33.0613 31.7849C31.7878 33.7048 29.973 35.2033 27.8469 36.0905C25.7207 36.9778 23.379 37.2137 21.1186 36.7685C18.8582 36.3233 16.7809 35.217 15.15 33.5897" stroke="#666AF6" stroke-width="2.5846" stroke-linecap="round" stroke-linejoin="round"/>
</svg>
