<svg width="32" height="32" viewBox="0 0 32 32" fill="none" xmlns="http://www.w3.org/2000/svg">
<path d="M27.1732 4.61329L21.3332 2.66663C21.3332 4.08111 20.7713 5.43767 19.7711 6.43786C18.7709 7.43806 17.4143 7.99996 15.9999 7.99996C14.5854 7.99996 13.2288 7.43806 12.2286 6.43786C11.2284 5.43767 10.6665 4.08111 10.6665 2.66663L4.82652 4.61329C4.22303 4.81435 3.71129 5.22451 3.38366 5.76975C3.05603 6.31499 2.93409 6.95938 3.03986 7.58663L3.81319 12.2133C3.86396 12.5265 4.02476 12.8114 4.26671 13.0166C4.50866 13.2219 4.81589 13.3342 5.13319 13.3333H7.99986V26.6666C7.99986 28.1333 9.19986 29.3333 10.6665 29.3333H21.3332C22.0404 29.3333 22.7187 29.0523 23.2188 28.5522C23.7189 28.0521 23.9999 27.3739 23.9999 26.6666V13.3333H26.8665C27.1838 13.3342 27.4911 13.2219 27.733 13.0166C27.9749 12.8114 28.1358 12.5265 28.1865 12.2133L28.9599 7.58663C29.0656 6.95938 28.9437 6.31499 28.616 5.76975C28.2884 5.22451 27.7767 4.81435 27.1732 4.61329Z" stroke="#545E6D" stroke-width="2.66667" stroke-linecap="round" stroke-linejoin="round"/>
</svg>
