<svg width="33" height="33" viewBox="0 0 33 33" fill="none" xmlns="http://www.w3.org/2000/svg">
<path d="M30.25 10.5875C30.25 9.76249 29.7 8.93749 29.15 8.52499L20.4875 3.16249C20.1313 2.95998 19.7285 2.85352 19.3188 2.85352C18.909 2.85352 18.5063 2.95998 18.15 3.16249L3.98752 11.4125C3.30002 11.6875 2.75002 12.5125 2.75002 13.3375V22.4125C2.75002 23.1 3.30002 24.0625 3.85002 24.475L12.5125 29.8375C12.8688 30.04 13.2715 30.1465 13.6813 30.1465C14.091 30.1465 14.4938 30.04 14.85 29.8375L29.0125 21.5875C29.7 21.175 30.25 20.2125 30.25 19.525V10.5875Z" stroke="#545E6D" stroke-width="2.40625" stroke-linecap="round" stroke-linejoin="round"/>
<path d="M13.75 30.1125V19.25L2.88746 12.5125" stroke="#545E6D" stroke-width="2.40625" stroke-linecap="round" stroke-linejoin="round"/>
<path d="M13.75 19.25L30.1125 9.76245" stroke="#545E6D" stroke-width="2.40625" stroke-linecap="round" stroke-linejoin="round"/>
<path d="M19.25 27.225V16.0875" stroke="#545E6D" stroke-width="2.40625" stroke-linecap="round" stroke-linejoin="round"/>
<path d="M24.75 24.0625V12.925" stroke="#545E6D" stroke-width="2.40625" stroke-linecap="round" stroke-linejoin="round"/>
</svg>
