<svg width="26" height="26" viewBox="0 0 26 26" fill="none" xmlns="http://www.w3.org/2000/svg">
<path d="M8.66671 23.8334C9.26502 23.8334 9.75004 23.3483 9.75004 22.75C9.75004 22.1517 9.26502 21.6667 8.66671 21.6667C8.0684 21.6667 7.58337 22.1517 7.58337 22.75C7.58337 23.3483 8.0684 23.8334 8.66671 23.8334Z" stroke="#111D31" stroke-width="2.16667" stroke-linecap="round" stroke-linejoin="round"/>
<path d="M20.5833 23.8334C21.1816 23.8334 21.6667 23.3483 21.6667 22.75C21.6667 22.1517 21.1816 21.6667 20.5833 21.6667C19.985 21.6667 19.5 22.1517 19.5 22.75C19.5 23.3483 19.985 23.8334 20.5833 23.8334Z" stroke="#111D31" stroke-width="2.16667" stroke-linecap="round" stroke-linejoin="round"/>
<path d="M2.22079 2.22083H4.38746L7.26913 15.6758C7.37484 16.1686 7.64902 16.6091 8.04448 16.9215C8.43994 17.2339 8.93194 17.3987 9.43579 17.3875H20.0308C20.5239 17.3867 21.002 17.2177 21.3861 16.9085C21.7702 16.5992 22.0373 16.1682 22.1433 15.6867L23.9308 7.63749H5.54663" stroke="#111D31" stroke-width="2.16667" stroke-linecap="round" stroke-linejoin="round"/>
</svg>
