<svg width="20" height="20" viewBox="0 0 20 20" fill="none" xmlns="http://www.w3.org/2000/svg">
<path d="M3.33331 16.25V3.74996C3.33331 3.19742 3.55281 2.66752 3.94351 2.27682C4.33421 1.88612 4.86411 1.66663 5.41665 1.66663H16.6666V18.3333H5.41665C4.86411 18.3333 4.33421 18.1138 3.94351 17.7231C3.55281 17.3324 3.33331 16.8025 3.33331 16.25ZM3.33331 16.25C3.33331 15.6974 3.55281 15.1675 3.94351 14.7768C4.33421 14.3861 4.86411 14.1666 5.41665 14.1666H16.6666" stroke="black" stroke-width="1.5" stroke-linecap="round" stroke-linejoin="round"/>
<path d="M8.33335 8.33333C9.25383 8.33333 10 7.58714 10 6.66667C10 5.74619 9.25383 5 8.33335 5C7.41288 5 6.66669 5.74619 6.66669 6.66667C6.66669 7.58714 7.41288 8.33333 8.33335 8.33333Z" stroke="black" stroke-width="1.5" stroke-linecap="round" stroke-linejoin="round"/>
<path d="M16.6666 11.4166L14.9166 9.66663C14.25 8.99996 13.25 8.99996 12.5833 9.66663L8.08331 14.1666" stroke="black" stroke-width="1.5" stroke-linecap="round" stroke-linejoin="round"/>
</svg>
