<svg width="40" height="41" viewBox="0 0 40 41" fill="none" xmlns="http://www.w3.org/2000/svg">
<path d="M15 5.17285H8.33333C6.49238 5.17285 5 6.66524 5 8.50618V15.1729C5 17.0138 6.49238 18.5062 8.33333 18.5062H15C16.8409 18.5062 18.3333 17.0138 18.3333 15.1729V8.50618C18.3333 6.66524 16.8409 5.17285 15 5.17285Z" fill="#666AF6" stroke="#666AF6" stroke-width="2.56876" stroke-linecap="round" stroke-linejoin="round"/>
<path d="M11.6667 18.5061V25.1728C11.6667 26.0568 12.0179 26.9047 12.643 27.5298C13.2681 28.1549 14.116 28.5061 15 28.5061H21.6667" stroke="#666AF6" stroke-width="2.56876" stroke-linecap="round" stroke-linejoin="round"/>
<path d="M31.6667 21.8396H25C23.1591 21.8396 21.6667 23.332 21.6667 25.1729V31.8396C21.6667 33.6805 23.1591 35.1729 25 35.1729H31.6667C33.5076 35.1729 35 33.6805 35 31.8396V25.1729C35 23.332 33.5076 21.8396 31.6667 21.8396Z" stroke="#666AF6" stroke-width="2.56876" stroke-linecap="round" stroke-linejoin="round"/>
</svg>
