<svg width="21" height="21" viewBox="0 0 21 21" fill="none" xmlns="http://www.w3.org/2000/svg">
<path d="M17.5 8.75C17.5 14 10.5 19.25 10.5 19.25C10.5 19.25 3.5 14 3.5 8.75C3.5 6.89348 4.2375 5.11301 5.55025 3.80025C6.86301 2.4875 8.64348 1.75 10.5 1.75C12.3565 1.75 14.137 2.4875 15.4497 3.80025C16.7625 5.11301 17.5 6.89348 17.5 8.75Z" stroke="#111D31" stroke-width="1.58333" stroke-linecap="round" stroke-linejoin="round"/>
<path d="M10.5 11.375C11.9497 11.375 13.125 10.1997 13.125 8.75C13.125 7.30025 11.9497 6.125 10.5 6.125C9.05025 6.125 7.875 7.30025 7.875 8.75C7.875 10.1997 9.05025 11.375 10.5 11.375Z" stroke="#111D31" stroke-width="1.58333" stroke-linecap="round" stroke-linejoin="round"/>
</svg>
