<svg width="27" height="29" viewBox="0 0 27 29" fill="none" xmlns="http://www.w3.org/2000/svg">
<path fill-rule="evenodd" clip-rule="evenodd" d="M1.45843 0.821385C1.13897 1.16448 0.955353 1.69254 0.955353 2.37873V26.7861C0.955353 27.4723 1.13897 28.0004 1.47038 28.3315L1.55696 28.4046L15.2432 14.7286V14.4213L1.54502 0.748291L1.45843 0.821385Z" fill="url(#paint0_linear_1_1026)"/>
<path fill-rule="evenodd" clip-rule="evenodd" d="M19.7961 19.3059L15.231 14.7427V14.4235L19.7976 9.86035L19.8961 9.92151L25.2971 12.9885C26.8437 13.8596 26.8437 15.2947 25.2971 16.1778L19.8961 19.2447C19.8946 19.2447 19.7961 19.3059 19.7961 19.3059Z" fill="url(#paint1_linear_1_1026)"/>
<path fill-rule="evenodd" clip-rule="evenodd" d="M19.8943 19.2444L15.2307 14.5828L1.45793 28.3453C1.96101 28.8853 2.80744 28.9465 3.7539 28.4184L19.8943 19.2444Z" fill="url(#paint2_linear_1_1026)"/>
<path fill-rule="evenodd" clip-rule="evenodd" d="M19.8934 9.92253L3.75298 0.760439C2.80802 0.220439 1.9601 0.293533 1.45702 0.833533L15.2283 14.5826L19.8934 9.92253Z" fill="url(#paint3_linear_1_1026)"/>
<path opacity="0.2" fill-rule="evenodd" clip-rule="evenodd" d="M19.7961 19.147L3.76618 28.2479C2.87048 28.7625 2.07182 28.7267 1.5568 28.2598L1.47021 28.3464L1.5568 28.4194C2.07182 28.8849 2.87048 28.9222 3.76618 28.4075L19.9066 19.2454L19.7961 19.147Z" fill="black"/>
<path opacity="0.12" fill-rule="evenodd" clip-rule="evenodd" d="M25.2959 16.0178L19.7843 19.1459L19.8829 19.2444L25.2839 16.1774C26.0572 15.7359 26.4379 15.1601 26.4379 14.5828C26.3886 15.1108 25.996 15.6135 25.2959 16.0178Z" fill="black"/>
<path opacity="0.25" fill-rule="evenodd" clip-rule="evenodd" d="M3.75522 0.921116L25.2967 13.1502C25.9968 13.5425 26.3894 14.0571 26.4506 14.5852C26.4506 14.0094 26.07 13.4321 25.2967 12.9906L3.75522 0.761503C2.20866 -0.12159 0.956177 0.613824 0.956177 2.38001V2.53962C0.956177 0.773437 2.20866 0.0499566 3.75522 0.921116Z" fill="white"/>
<defs>
<linearGradient id="paint0_linear_1_1026" x1="14.0142" y1="2.11638" x2="-7.90657" y2="7.96154" gradientUnits="userSpaceOnUse">
<stop stop-color="#00A0FF"/>
<stop offset="0.007" stop-color="#00A1FF"/>
<stop offset="0.26" stop-color="#00BEFF"/>
<stop offset="0.512" stop-color="#00D2FF"/>
<stop offset="0.76" stop-color="#00DFFF"/>
<stop offset="1" stop-color="#00E3FF"/>
</linearGradient>
<linearGradient id="paint1_linear_1_1026" x1="27.3096" y1="14.5838" x2="0.579261" y2="14.5838" gradientUnits="userSpaceOnUse">
<stop stop-color="#FFE000"/>
<stop offset="0.409" stop-color="#FFBD00"/>
<stop offset="0.775" stop-color="#FFA500"/>
<stop offset="1" stop-color="#FF9C00"/>
</linearGradient>
<linearGradient id="paint2_linear_1_1026" x1="17.3584" y1="17.1187" x2="-0.222038" y2="46.7298" gradientUnits="userSpaceOnUse">
<stop stop-color="#FF3A44"/>
<stop offset="1" stop-color="#C31162"/>
</linearGradient>
<linearGradient id="paint3_linear_1_1026" x1="-2.00994" y1="-7.29748" x2="5.83323" y2="5.9273" gradientUnits="userSpaceOnUse">
<stop stop-color="#32A071"/>
<stop offset="0.069" stop-color="#2DA771"/>
<stop offset="0.476" stop-color="#15CF74"/>
<stop offset="0.801" stop-color="#06E775"/>
<stop offset="1" stop-color="#00F076"/>
</linearGradient>
</defs>
</svg>
