<svg width="18" height="20" viewBox="0 0 18 20" fill="none" xmlns="http://www.w3.org/2000/svg">
<path fill-rule="evenodd" clip-rule="evenodd" d="M0.525843 1.10936C0.314634 1.33619 0.193237 1.68532 0.193237 2.13898V18.2756C0.193237 18.7293 0.314634 19.0784 0.533739 19.2973L0.590983 19.3457L9.63945 10.3039V10.1008L0.583087 1.06104L0.525843 1.10936Z" fill="url(#paint0_linear_1_454)"/>
<path fill-rule="evenodd" clip-rule="evenodd" d="M12.6495 13.3302L9.63141 10.3134V10.1023L12.6505 7.08545L12.7157 7.12588L16.2865 9.15357C17.309 9.72952 17.309 10.6783 16.2865 11.2621L12.7157 13.2898C12.7147 13.2898 12.6495 13.3302 12.6495 13.3302Z" fill="url(#paint1_linear_1_454)"/>
<path fill-rule="evenodd" clip-rule="evenodd" d="M12.7145 13.2895L9.63122 10.2075L0.525513 19.3064C0.858119 19.6635 1.41773 19.7039 2.04346 19.3548L12.7145 13.2895Z" fill="url(#paint2_linear_1_454)"/>
<path fill-rule="evenodd" clip-rule="evenodd" d="M12.7139 7.12644L2.04285 1.06904C1.4181 0.712025 0.857509 0.760351 0.524902 1.11736L9.62963 10.2074L12.7139 7.12644Z" fill="url(#paint3_linear_1_454)"/>
<path opacity="0.2" fill-rule="evenodd" clip-rule="evenodd" d="M12.6496 13.2251L2.05158 19.2421C1.4594 19.5823 0.931376 19.5586 0.590874 19.25L0.53363 19.3072L0.590874 19.3555C0.931376 19.6632 1.4594 19.6878 2.05158 19.3476L12.7226 13.2902L12.6496 13.2251Z" fill="black"/>
<path opacity="0.12" fill-rule="evenodd" clip-rule="evenodd" d="M16.2856 11.1563L12.6418 13.2244L12.7069 13.2895L16.2778 11.2618C16.789 10.9699 17.0407 10.5892 17.0407 10.2075C17.0081 10.5566 16.7485 10.889 16.2856 11.1563Z" fill="black"/>
<path opacity="0.25" fill-rule="evenodd" clip-rule="evenodd" d="M2.04434 1.17525L16.2862 9.26033C16.7491 9.51971 17.0087 9.85996 17.0491 10.2091C17.0491 9.8284 16.7974 9.44673 16.2862 9.15481L2.04434 1.06973C1.02185 0.485881 0.193787 0.97209 0.193787 2.13978V2.24531C0.193787 1.07762 1.02185 0.599297 2.04434 1.17525Z" fill="white"/>
<defs>
<linearGradient id="paint0_linear_1_454" x1="8.82694" y1="1.96553" x2="-5.66571" y2="5.82998" gradientUnits="userSpaceOnUse">
<stop stop-color="#00A0FF"/>
<stop offset="0.007" stop-color="#00A1FF"/>
<stop offset="0.26" stop-color="#00BEFF"/>
<stop offset="0.512" stop-color="#00D2FF"/>
<stop offset="0.76" stop-color="#00DFFF"/>
<stop offset="1" stop-color="#00E3FF"/>
</linearGradient>
<linearGradient id="paint1_linear_1_454" x1="17.617" y1="10.2083" x2="-0.0554139" y2="10.2083" gradientUnits="userSpaceOnUse">
<stop stop-color="#FFE000"/>
<stop offset="0.409" stop-color="#FFBD00"/>
<stop offset="0.775" stop-color="#FFA500"/>
<stop offset="1" stop-color="#FF9C00"/>
</linearGradient>
<linearGradient id="paint2_linear_1_454" x1="11.0379" y1="11.8841" x2="-0.585178" y2="31.4611" gradientUnits="userSpaceOnUse">
<stop stop-color="#FF3A44"/>
<stop offset="1" stop-color="#C31162"/>
</linearGradient>
<linearGradient id="paint3_linear_1_454" x1="-1.76723" y1="-4.25835" x2="3.41818" y2="4.48504" gradientUnits="userSpaceOnUse">
<stop stop-color="#32A071"/>
<stop offset="0.069" stop-color="#2DA771"/>
<stop offset="0.476" stop-color="#15CF74"/>
<stop offset="0.801" stop-color="#06E775"/>
<stop offset="1" stop-color="#00F076"/>
</linearGradient>
</defs>
</svg>
