<svg width="21" height="25" viewBox="0 0 21 25" fill="none" xmlns="http://www.w3.org/2000/svg">
<path d="M10.8441 24.1901L10.8408 11.8347L20.7131 6.12763V18.4693L10.8441 24.1901Z" fill="#D9A14E"/>
<path d="M10.8443 24.1896L10.841 11.8342L0.968689 6.12711V18.4687L10.8443 24.1896Z" fill="#E6AF64"/>
<path d="M0.968323 6.1272L10.8406 11.8343L20.7129 6.1272L10.844 0.421372L0.968323 6.1272Z" fill="#FDDDB7"/>
<path d="M17.0422 11.8428L14.8404 13.1208V9.51494L17.0422 8.23604V11.8428Z" fill="#464648"/>
<path d="M17.0421 8.23606L7.18355 2.53649L4.9776 3.81122L14.8403 9.51956L17.0421 8.23606Z" fill="#656769"/>
<path d="M12.1477 22.4224V21.7871L15.4619 19.865V20.5095L12.1477 22.4224Z" fill="#464648"/>
<path d="M12.1477 21.2866V20.6513L15.4619 18.7292V19.3736L12.1477 21.2866Z" fill="#464648"/>
<path d="M18.438 16.6599V18.8633L20.0233 17.9459V15.7412L18.438 16.6599Z" fill="#464648"/>
<path d="M3.14004 16.4295V18.726L1.55518 17.8098V15.5137L3.14004 16.4295Z" fill="#464648"/>
<path d="M5.30276 17.6839V19.9805L3.7179 19.0643V16.7682L5.30276 17.6839Z" fill="#464648"/>
<path d="M4.81254 9.71727V13.0176L1.55518 11.1352V7.83105L4.81254 9.71727Z" fill="white"/>
<path d="M4.41426 10.3925V9.85526L1.85101 8.37726V8.90568L4.41426 10.3925Z" fill="#464648"/>
</svg>
