<svg width="20" height="138" viewBox="0 0 20 138" fill="none" xmlns="http://www.w3.org/2000/svg">
<path d="M9.21204 0.576172C4.13146 0.576172 0 4.70758 0 9.78821C0 14.8688 4.13141 19.0002 9.21204 19.0002C14.2927 19.0002 18.4241 14.8688 18.4241 9.78821C18.4241 4.70758 14.2927 0.576172 9.21204 0.576172ZM13.846 8.19704L8.68169 13.1102C8.51423 13.2777 8.31874 13.3336 8.09538 13.3336C7.87203 13.3336 7.67673 13.2498 7.50905 13.0824L4.55029 10.1232C4.21536 9.78829 4.21536 9.25789 4.55029 8.95077C4.88521 8.61585 5.41561 8.61585 5.72273 8.95077L8.09562 11.3237L12.6737 6.96894C13.0086 6.66186 13.539 6.66186 13.8462 6.99678C14.2089 7.33171 14.1811 7.8621 13.8462 8.19704H13.846Z" fill="#666AF6"/>
<path d="M9.21204 0.576172C4.13146 0.576172 0 4.70758 0 9.78821C0 14.8688 4.13141 19.0002 9.21204 19.0002C14.2927 19.0002 18.4241 14.8688 18.4241 9.78821C18.4241 4.70758 14.2927 0.576172 9.21204 0.576172ZM13.846 8.19704L8.68169 13.1102C8.51423 13.2777 8.31874 13.3336 8.09538 13.3336C7.87203 13.3336 7.67673 13.2498 7.50905 13.0824L4.55029 10.1232C4.21536 9.78829 4.21536 9.25789 4.55029 8.95077C4.88521 8.61585 5.41561 8.61585 5.72273 8.95077L8.09562 11.3237L12.6737 6.96894C13.0086 6.66186 13.539 6.66186 13.8462 6.99678C14.2089 7.33171 14.1811 7.8621 13.8462 8.19704H13.846Z" fill="#666AF6"/>
<path d="M9.53625 40.0002C4.45568 40.0002 0.324219 44.1317 0.324219 49.2123C0.324219 54.2929 4.45563 58.4243 9.53625 58.4243C14.6169 58.4243 18.7483 54.2929 18.7483 49.2123C18.7483 44.1317 14.6169 40.0002 9.53625 40.0002ZM14.1702 47.6211L9.00591 52.5343C8.83845 52.7018 8.64295 52.7576 8.41959 52.7576C8.19625 52.7576 8.00094 52.6739 7.83327 52.5064L4.87451 49.5473C4.53958 49.2124 4.53958 48.682 4.87451 48.3748C5.20943 48.0399 5.73983 48.0399 6.04695 48.3748L8.41984 50.7477L12.9979 46.393C13.3329 46.0859 13.8633 46.0859 14.1704 46.4209C14.5331 46.7558 14.5053 47.2862 14.1704 47.6211H14.1702Z" fill="#666AF6"/>
<path d="M9.86047 79.4243C4.7799 79.4243 0.648438 83.5557 0.648438 88.6364C0.648438 93.717 4.77985 97.8484 9.86047 97.8484C14.9411 97.8484 19.0725 93.717 19.0725 88.6364C19.0725 83.5557 14.9411 79.4243 9.86047 79.4243ZM14.4945 87.0452L9.33013 91.9584C9.16267 92.1258 8.96717 92.1817 8.74381 92.1817C8.52046 92.1817 8.32516 92.098 8.15749 91.9305L5.19872 88.9714C4.8638 88.6364 4.8638 88.106 5.19872 87.7989C5.53365 87.464 6.06405 87.464 6.37117 87.7989L8.74406 90.1718L13.3222 85.8171C13.6571 85.51 14.1875 85.51 14.4946 85.8449C14.8574 86.1798 14.8295 86.7102 14.4946 87.0452H14.4945Z" fill="#666AF6"/>
<path d="M10.1847 118.848C5.10411 118.848 0.972656 122.98 0.972656 128.06C0.972656 133.141 5.10406 137.272 10.1847 137.272C15.2653 137.272 19.3967 133.141 19.3967 128.06C19.3967 122.98 15.2653 118.848 10.1847 118.848ZM14.8187 126.469L9.65435 131.382C9.48689 131.55 9.29139 131.606 9.06803 131.606C8.84468 131.606 8.64938 131.522 8.48171 131.355L5.52294 128.395C5.18802 128.061 5.18802 127.53 5.52294 127.223C5.85787 126.888 6.38827 126.888 6.69538 127.223L9.06828 129.596L13.6464 125.241C13.9813 124.934 14.5117 124.934 14.8188 125.269C15.1816 125.604 15.1537 126.134 14.8188 126.469H14.8187Z" fill="#666AF6"/>
</svg>
