<svg width="21" height="25" viewBox="0 0 21 25" fill="none" xmlns="http://www.w3.org/2000/svg">
<path d="M10.179 24.6417L10.1756 12.2863L20.0479 6.5792V18.9208L10.179 24.6417Z" fill="#D9A14E"/>
<path d="M10.1794 24.6417L10.1761 12.2863L0.303772 6.5792V18.9208L10.1794 24.6417Z" fill="#E6AF64"/>
<path d="M0.303162 6.57877L10.1755 12.2859L20.0478 6.57877L10.1788 0.872941L0.303162 6.57877Z" fill="#FDDDB7"/>
<path d="M16.377 12.2943L14.1753 13.5724V9.96651L16.377 8.6876V12.2943Z" fill="#464648"/>
<path d="M16.3769 8.68763L6.51839 2.98805L4.31244 4.26279L14.1751 9.97113L16.3769 8.68763Z" fill="#656769"/>
<path d="M11.4826 22.874V22.2387L14.7967 20.3166V20.961L11.4826 22.874Z" fill="#464648"/>
<path d="M11.4826 21.7381V21.1028L14.7967 19.1807V19.8252L11.4826 21.7381Z" fill="#464648"/>
<path d="M17.7729 17.1115V19.3149L19.3581 18.3975V16.1928L17.7729 17.1115Z" fill="#464648"/>
<path d="M2.47487 16.881V19.1776L0.890015 18.2614V15.9653L2.47487 16.881Z" fill="#464648"/>
<path d="M4.63756 18.1355V20.432L3.0527 19.5158V17.2197L4.63756 18.1355Z" fill="#464648"/>
<path d="M4.14738 10.1688V13.4692L0.890015 11.5867V8.28262L4.14738 10.1688Z" fill="white"/>
<path d="M3.7491 10.844V10.3068L1.18585 8.82882V9.35725L3.7491 10.844Z" fill="#464648"/>
</svg>
