<svg width="13" height="12" viewBox="0 0 13 12" fill="none" xmlns="http://www.w3.org/2000/svg">
<path d="M10.1147 6.53444C10.3036 5.95085 10.2712 5.31821 10.0237 4.75698C9.77621 4.19575 9.33095 3.74515 8.77272 3.49098C8.21449 3.23682 7.58227 3.19685 6.99648 3.37869C6.41068 3.56053 5.91223 3.95148 5.59604 4.47707C5.08794 4.23102 4.53082 4.10292 3.96628 4.10234C3.40174 4.10176 2.84435 4.2287 2.33574 4.47371C1.82714 4.71871 1.38044 5.07543 1.029 5.51725C0.677568 5.95907 0.430473 6.47456 0.306166 7.02525C0.181859 7.57593 0.183551 8.14759 0.311115 8.69753C0.43868 9.24747 0.688822 9.7615 1.04287 10.2012C1.39691 10.641 1.84571 10.995 2.35576 11.237C2.86581 11.479 3.42394 11.6026 3.98846 11.5987H8.15317C8.73984 11.597 9.31234 11.4184 9.79586 11.0861C10.2794 10.7539 10.6514 10.2835 10.8633 9.73641C11.0752 9.18934 11.1171 8.59108 10.9836 8.01981C10.85 7.44855 10.5472 6.93087 10.1147 6.53444ZM6.30404 4.91436C6.49047 4.60018 6.77501 4.35599 7.11384 4.21939C7.45268 4.08279 7.82702 4.06137 8.17923 4.15842C8.53144 4.25546 8.84198 4.4656 9.06303 4.75646C9.28408 5.04733 9.40339 5.4028 9.40259 5.76813C9.40187 5.86029 9.39352 5.95223 9.3776 6.043C8.6941 5.72251 7.91233 5.68215 7.19945 5.93055C6.96228 5.53621 6.65451 5.18891 6.29155 4.90604L6.30404 4.91436ZM8.15317 10.7658H3.98846C3.46516 10.7659 2.95146 10.6252 2.50128 10.3584C2.0511 10.0916 1.68104 9.7085 1.42993 9.24937C1.17883 8.79024 1.05593 8.27199 1.07415 7.749C1.09237 7.22601 1.25102 6.71756 1.53347 6.27702C1.81591 5.83648 2.21173 5.48008 2.67938 5.24524C3.14704 5.01039 3.66928 4.90576 4.19131 4.94231C4.71334 4.97886 5.21591 5.15526 5.64627 5.45298C6.07664 5.75071 6.41892 6.15879 6.63722 6.63439C6.66079 6.68511 6.69433 6.73056 6.73585 6.76803C6.77737 6.80551 6.826 6.83423 6.87887 6.8525C6.93173 6.87077 6.98772 6.8782 7.04352 6.87436C7.09931 6.87052 7.15376 6.85547 7.20362 6.83013C7.4975 6.67957 7.82297 6.60106 8.15317 6.60107C8.70545 6.60107 9.2351 6.82046 9.62562 7.21098C10.0161 7.6015 10.2355 8.13115 10.2355 8.68343C10.2355 9.2357 10.0161 9.76536 9.62562 10.1559C9.2351 10.5464 8.70545 10.7658 8.15317 10.7658Z" fill="#666AF6"/>
<path d="M7.73642 2.43615C7.84687 2.43615 7.9528 2.39227 8.03091 2.31417C8.10901 2.23606 8.15289 2.13013 8.15289 2.01968V1.18673C8.15289 1.07628 8.10901 0.970349 8.03091 0.892245C7.9528 0.814142 7.84687 0.770264 7.73642 0.770264C7.62596 0.770264 7.52003 0.814142 7.44193 0.892245C7.36382 0.970349 7.31995 1.07628 7.31995 1.18673V2.01968C7.31995 2.13013 7.36382 2.23606 7.44193 2.31417C7.52003 2.39227 7.62596 2.43615 7.73642 2.43615Z" fill="#666AF6"/>
<path d="M5.49924 2.73208C5.55687 2.82273 5.64729 2.88761 5.75162 2.91317C5.85596 2.93872 5.96613 2.92298 6.05913 2.86922C6.15212 2.81547 6.22076 2.72786 6.25068 2.62469C6.28061 2.52153 6.26952 2.41079 6.21973 2.31561L5.80743 1.60345C5.7498 1.51279 5.65938 1.44792 5.55504 1.42236C5.45071 1.3968 5.34054 1.41255 5.24754 1.4663C5.15454 1.52006 5.08591 1.60767 5.05598 1.71083C5.02605 1.814 5.03714 1.92474 5.08693 2.01992L5.49924 2.73208Z" fill="#666AF6"/>
<path d="M12.3183 5.35178H11.4853C11.3749 5.35178 11.2689 5.39565 11.1908 5.47376C11.1127 5.55186 11.0688 5.65779 11.0688 5.76825C11.0688 5.8787 11.1127 5.98463 11.1908 6.06274C11.2689 6.14084 11.3749 6.18472 11.4853 6.18472H12.3183C12.4287 6.18472 12.5346 6.14084 12.6127 6.06274C12.6909 5.98463 12.7347 5.8787 12.7347 5.76825C12.7347 5.65779 12.6909 5.55186 12.6127 5.47376C12.5346 5.39565 12.4287 5.35178 12.3183 5.35178Z" fill="#666AF6"/>
<path d="M10.9858 4.31027C11.0587 4.31077 11.1306 4.2921 11.194 4.25613L11.9145 3.83965C12.0052 3.78203 12.07 3.6916 12.0956 3.58727C12.1212 3.48294 12.1054 3.37277 12.0517 3.27977C11.9979 3.18677 11.9103 3.11814 11.8071 3.08821C11.704 3.05828 11.5932 3.06937 11.498 3.11916L10.7776 3.53563C10.6973 3.58109 10.6345 3.6519 10.5988 3.73694C10.5631 3.82199 10.5567 3.91646 10.5805 4.00555C10.6044 4.09463 10.6571 4.1733 10.7304 4.2292C10.8038 4.2851 10.8936 4.31508 10.9858 4.31443V4.31027Z" fill="#666AF6"/>
<path d="M9.40303 2.88187C9.45057 2.90941 9.50308 2.92727 9.55754 2.93443C9.61201 2.94158 9.66735 2.93789 9.72038 2.92357C9.77342 2.90925 9.82309 2.88457 9.86655 2.85097C9.91001 2.81737 9.94639 2.7755 9.9736 2.72778L10.3901 2.00728C10.4399 1.9121 10.4509 1.80136 10.421 1.6982C10.3911 1.59504 10.3225 1.50743 10.2295 1.45367C10.1365 1.39991 10.0263 1.38417 9.92196 1.40973C9.81762 1.43528 9.7272 1.50016 9.66957 1.59081L9.2531 2.31131C9.22539 2.35859 9.20729 2.41088 9.19983 2.46518C9.19237 2.51947 9.1957 2.57471 9.20963 2.62771C9.22356 2.68072 9.24781 2.73045 9.281 2.77407C9.31419 2.81768 9.35566 2.85432 9.40303 2.88187Z" fill="#666AF6"/>
</svg>
