<svg width="17" height="17" viewBox="0 0 17 17" fill="none" xmlns="http://www.w3.org/2000/svg">
<g clip-path="url(#clip0_1_527)">
<path d="M8.4999 1.41553C12.4099 1.41553 15.5832 4.58886 15.5832 8.49886C15.5832 12.4089 12.4099 15.5822 8.4999 15.5822C4.5899 15.5822 1.41656 12.4089 1.41656 8.49886C1.41656 4.58886 4.5899 1.41553 8.4999 1.41553ZM8.4999 2.83219C5.36907 2.83219 2.83323 5.36803 2.83323 8.49886C2.83323 11.6297 5.36907 14.1655 8.4999 14.1655C11.6307 14.1655 14.1666 11.6297 14.1666 8.49886C14.1666 5.36803 11.6307 2.83219 8.4999 2.83219ZM8.4999 4.95719C9.78907 4.95719 10.9174 5.6464 11.5372 6.67703L10.3231 7.4059C10.1321 7.08732 9.86084 6.8244 9.53647 6.64334C9.2121 6.46229 8.84593 6.36943 8.47448 6.37402C8.10303 6.37862 7.73927 6.48051 7.41948 6.66953C7.09969 6.85856 6.83503 7.12811 6.65191 7.45132C6.46878 7.77453 6.37359 8.1401 6.37581 8.51157C6.37803 8.88304 6.47759 9.24745 6.66457 9.56844C6.85155 9.88943 7.11941 10.1558 7.44144 10.341C7.76347 10.5262 8.12842 10.6237 8.4999 10.6239C8.86691 10.6241 9.22772 10.5292 9.54714 10.3485C9.86655 10.1677 10.1337 9.90727 10.3224 9.59253L11.5372 10.3207C11.1392 10.9855 10.534 11.5015 9.81451 11.7893C9.09504 12.0772 8.30101 12.1211 7.5542 11.9143C6.80739 11.7074 6.14904 11.2614 5.68012 10.6444C5.2112 10.0275 4.95761 9.27378 4.95823 8.49886C4.95823 6.54386 6.5449 4.95719 8.4999 4.95719Z" fill="#6B7687"/>
</g>
<defs>
<clipPath id="clip0_1_527">
<rect width="17" height="17" fill="white" transform="translate(-0.00012207 -0.000976562)"/>
</clipPath>
</defs>
</svg>
