<svg width="12" height="12" viewBox="0 0 12 12" fill="none" xmlns="http://www.w3.org/2000/svg">
<path d="M5.9212 2.93634C5.2787 2.93634 4.65063 3.12686 4.11641 3.48382C3.5822 3.84077 3.16582 4.34812 2.91995 4.94171C2.67408 5.5353 2.60974 6.18847 2.73509 6.81863C2.86043 7.44878 3.16983 8.02761 3.62414 8.48193C4.07846 8.93624 4.65729 9.24564 5.28744 9.37098C5.9176 9.49633 6.57077 9.43199 7.16436 9.18612C7.75795 8.94025 8.2653 8.52387 8.62225 7.98966C8.97921 7.45544 9.16973 6.82737 9.16973 6.18487C9.16973 5.32331 8.82747 4.49703 8.21826 3.88781C7.60904 3.2786 6.78276 2.93634 5.9212 2.93634ZM5.9212 8.7115C5.42148 8.7115 4.93298 8.56332 4.51748 8.28569C4.10197 8.00806 3.77813 7.61345 3.58689 7.15177C3.39566 6.69009 3.34562 6.18207 3.44311 5.69195C3.5406 5.20183 3.78124 4.75163 4.1346 4.39827C4.48796 4.04491 4.93816 3.80428 5.42828 3.70678C5.9184 3.60929 6.42642 3.65933 6.8881 3.85056C7.34978 4.0418 7.74439 4.36564 8.02202 4.78115C8.29965 5.19665 8.44783 5.68515 8.44783 6.18487C8.44783 6.85498 8.18164 7.49763 7.7078 7.97147C7.23396 8.44531 6.5913 8.7115 5.9212 8.7115Z" fill="#666AF6"/>
<path d="M5.9214 2.21454C6.01713 2.21454 6.10894 2.17651 6.17663 2.10882C6.24432 2.04113 6.28235 1.94932 6.28235 1.8536V1.1317C6.28235 1.03597 6.24432 0.944162 6.17663 0.876471C6.10894 0.80878 6.01713 0.770752 5.9214 0.770752C5.82567 0.770752 5.73387 0.80878 5.66617 0.876471C5.59848 0.944162 5.56046 1.03597 5.56046 1.1317V1.8536C5.56046 1.94932 5.59848 2.04113 5.66617 2.10882C5.73387 2.17651 5.82567 2.21454 5.9214 2.21454Z" fill="#666AF6"/>
<path d="M3.44134 2.6151C3.49129 2.69366 3.56965 2.74989 3.66008 2.77204C3.7505 2.79419 3.84599 2.78055 3.92659 2.73396C4.00719 2.68737 4.06667 2.61144 4.09261 2.52203C4.11854 2.43262 4.10893 2.33664 4.06578 2.25415L3.70483 1.62971C3.65489 1.55115 3.57652 1.49492 3.4861 1.47277C3.39567 1.45062 3.30019 1.46426 3.21959 1.51085C3.13899 1.55744 3.07951 1.63337 3.05357 1.72278C3.02763 1.81219 3.03724 1.90817 3.08039 1.99066L3.44134 2.6151Z" fill="#666AF6"/>
<path d="M2.35146 3.70495L1.72702 3.34401C1.64453 3.30085 1.54855 3.29124 1.45914 3.31718C1.36973 3.34312 1.2938 3.4026 1.24721 3.4832C1.20062 3.5638 1.18698 3.65929 1.20913 3.74971C1.23127 3.84013 1.2875 3.9185 1.36607 3.96844L1.99051 4.32939C2.073 4.37255 2.16898 4.38216 2.25839 4.35622C2.3478 4.33028 2.42373 4.2708 2.47032 4.1902C2.5169 4.1096 2.53055 4.01411 2.5084 3.92369C2.48625 3.83327 2.43002 3.7549 2.35146 3.70495Z" fill="#666AF6"/>
<path d="M1.95093 6.18498C1.95093 6.08925 1.9129 5.99745 1.84521 5.92975C1.77752 5.86206 1.68571 5.82404 1.58998 5.82404H0.868089C0.77236 5.82404 0.680551 5.86206 0.61286 5.92975C0.545169 5.99745 0.507141 6.08925 0.507141 6.18498C0.507141 6.28071 0.545169 6.37252 0.61286 6.44021C0.680551 6.5079 0.77236 6.54593 0.868089 6.54593H1.58998C1.68571 6.54593 1.77752 6.5079 1.84521 6.44021C1.9129 6.37252 1.95093 6.28071 1.95093 6.18498Z" fill="#666AF6"/>
<path d="M1.99051 8.03642L1.36607 8.39737C1.2875 8.44731 1.23127 8.52568 1.20913 8.6161C1.18698 8.70653 1.20062 8.80201 1.24721 8.88261C1.2938 8.96321 1.36973 9.02269 1.45914 9.04863C1.54855 9.07457 1.64453 9.06496 1.72702 9.02181L2.35146 8.66086C2.43002 8.61091 2.48625 8.53255 2.5084 8.44212C2.53055 8.3517 2.5169 8.25621 2.47032 8.17561C2.42373 8.09501 2.3478 8.03553 2.25839 8.00959C2.16898 7.98366 2.073 7.99327 1.99051 8.03642Z" fill="#666AF6"/>
<path d="M3.93584 9.62473C3.89464 9.60087 3.84913 9.58539 3.80193 9.57919C3.75472 9.57298 3.70676 9.57618 3.6608 9.5886C3.61483 9.60101 3.57178 9.62239 3.53412 9.65152C3.49645 9.68064 3.46492 9.71692 3.44134 9.75828L3.08039 10.3827C3.03724 10.4652 3.02763 10.5612 3.05357 10.6506C3.07951 10.74 3.13899 10.8159 3.21959 10.8625C3.30019 10.9091 3.39567 10.9228 3.4861 10.9006C3.57652 10.8785 3.65489 10.8222 3.70483 10.7437L4.06578 10.1192C4.0898 10.0783 4.10549 10.0329 4.11195 9.98588C4.11842 9.93882 4.11553 9.89095 4.10346 9.84501C4.09139 9.79907 4.07037 9.75597 4.0416 9.71817C4.01284 9.68037 3.9769 9.64862 3.93584 9.62473Z" fill="#666AF6"/>
<path d="M5.9214 10.1556C5.82567 10.1556 5.73387 10.1936 5.66617 10.2613C5.59848 10.329 5.56046 10.4208 5.56046 10.5165V11.2384C5.56046 11.3342 5.59848 11.426 5.66617 11.4937C5.73387 11.5614 5.82567 11.5994 5.9214 11.5994C6.01713 11.5994 6.10894 11.5614 6.17663 11.4937C6.24432 11.426 6.28235 11.3342 6.28235 11.2384V10.5165C6.28235 10.4208 6.24432 10.329 6.17663 10.2613C6.10894 10.1936 6.01713 10.1556 5.9214 10.1556Z" fill="#666AF6"/>
<path d="M8.40128 9.7548C8.35133 9.67624 8.27296 9.62001 8.18254 9.59786C8.09212 9.57571 7.99663 9.58936 7.91603 9.63595C7.83543 9.68253 7.77595 9.75846 7.75001 9.84787C7.72407 9.93728 7.73368 10.0333 7.77684 10.1158L8.13778 10.7402C8.18773 10.8188 8.2661 10.875 8.35652 10.8971C8.44694 10.9193 8.54243 10.9056 8.62303 10.859C8.70363 10.8125 8.76311 10.7365 8.78905 10.6471C8.81499 10.5577 8.80538 10.4617 8.76222 10.3792L8.40128 9.7548Z" fill="#666AF6"/>
<path d="M10.4765 8.39737L9.85211 8.03642C9.76962 7.99327 9.67364 7.98366 9.58423 8.00959C9.49482 8.03553 9.41889 8.09501 9.3723 8.17561C9.32571 8.25621 9.31207 8.3517 9.33422 8.44212C9.35637 8.53255 9.4126 8.61091 9.49116 8.66086L10.1156 9.02181C10.1981 9.06496 10.2941 9.07457 10.3835 9.04863C10.4729 9.02269 10.5488 8.96321 10.5954 8.88261C10.642 8.80201 10.6556 8.70653 10.6335 8.6161C10.6113 8.52568 10.5551 8.44731 10.4765 8.39737Z" fill="#666AF6"/>
<path d="M10.9748 5.82404H10.2529C10.1572 5.82404 10.0654 5.86206 9.99772 5.92975C9.93003 5.99745 9.892 6.08925 9.892 6.18498C9.892 6.28071 9.93003 6.37252 9.99772 6.44021C10.0654 6.5079 10.1572 6.54593 10.2529 6.54593H10.9748C11.0706 6.54593 11.1624 6.5079 11.2301 6.44021C11.2978 6.37252 11.3358 6.28071 11.3358 6.18498C11.3358 6.08925 11.2978 5.99745 11.2301 5.92975C11.1624 5.86206 11.0706 5.82404 10.9748 5.82404Z" fill="#666AF6"/>
<path d="M9.67145 4.38018C9.73468 4.38062 9.79692 4.36444 9.85193 4.33326L10.4764 3.97231C10.5195 3.94975 10.5576 3.91869 10.5884 3.88101C10.6193 3.84333 10.6422 3.7998 10.6557 3.75305C10.6693 3.7063 10.6732 3.65728 10.6674 3.60896C10.6615 3.56063 10.6459 3.51399 10.6216 3.47185C10.5972 3.4297 10.5646 3.39292 10.5256 3.36371C10.4867 3.33451 10.4422 3.31348 10.3949 3.3019C10.3477 3.29032 10.2985 3.28842 10.2505 3.29632C10.2024 3.30422 10.1565 3.32176 10.1154 3.34787L9.49098 3.70882C9.42145 3.74822 9.36696 3.80959 9.33606 3.8833C9.30515 3.957 9.29959 4.03888 9.32023 4.11609C9.34088 4.1933 9.38656 4.26147 9.45013 4.30992C9.51369 4.35837 9.59153 4.38435 9.67145 4.38379V4.38018Z" fill="#666AF6"/>
<path d="M7.90674 2.74502C7.94793 2.76888 7.99344 2.78436 8.04065 2.79057C8.08785 2.79677 8.13582 2.79357 8.18178 2.78116C8.22774 2.76874 8.2708 2.74736 8.30846 2.71824C8.34612 2.68911 8.37765 2.65283 8.40123 2.61147L8.76218 1.98703C8.80534 1.90454 8.81495 1.80856 8.78901 1.71915C8.76307 1.62974 8.70359 1.55381 8.62299 1.50722C8.54239 1.46063 8.4469 1.44699 8.35648 1.46914C8.26605 1.49128 8.18769 1.54751 8.13774 1.62608L7.77679 2.25052C7.75278 2.2915 7.73709 2.33682 7.73062 2.38388C7.72416 2.43093 7.72704 2.4788 7.73912 2.52474C7.75119 2.57068 7.77221 2.61379 7.80097 2.65159C7.82974 2.68939 7.86568 2.72114 7.90674 2.74502Z" fill="#666AF6"/>
</svg>
