<svg width="22" height="22" viewBox="0 0 22 22" fill="none" xmlns="http://www.w3.org/2000/svg">
<g clip-path="url(#clip0_1_402)">
<path d="M21.7045 6.91653C21.6533 5.79886 21.4758 5.03558 21.2163 4.3678C20.9527 3.66717 20.5394 3.03255 20.0052 2.508C19.4808 1.97383 18.846 1.56031 18.1454 1.29659C17.4774 1.0372 16.7143 0.85984 15.5966 0.809052C14.4769 0.757782 14.1191 0.745605 11.2676 0.745605C8.41603 0.745605 8.05827 0.757782 6.93851 0.808731C5.82083 0.85984 5.05772 1.03736 4.38977 1.29691C3.68914 1.56047 3.05452 1.97383 2.52997 2.508C1.9958 3.03239 1.58228 3.66701 1.31857 4.36764C1.05917 5.03558 0.881813 5.79886 0.831024 6.91637C0.779755 8.03629 0.767578 8.3939 0.767578 11.2454C0.767578 14.0972 0.779755 14.4549 0.831024 15.5747C0.881973 16.6922 1.05949 17.4555 1.31905 18.1234C1.5826 18.8239 1.99596 19.4587 2.53013 19.9831C3.05452 20.5172 3.6893 20.9306 4.38993 21.1941C5.05772 21.4538 5.82099 21.6312 6.93867 21.6823C8.05859 21.7334 8.41619 21.7454 11.2677 21.7454C14.1193 21.7454 14.4771 21.7334 15.5968 21.6823C16.7145 21.6312 17.4776 21.4538 18.1455 21.1941C19.5559 20.6488 20.6709 19.5338 21.2163 18.1234C21.476 17.4555 21.6533 16.6922 21.7045 15.5747C21.7554 14.4548 21.7676 14.0972 21.7676 11.2456C21.7676 8.3939 21.7554 8.03629 21.7045 6.91653ZM19.8144 15.4886C19.7677 16.5124 19.5966 17.0684 19.4529 17.4383C19.0996 18.3541 18.3759 19.0778 17.4601 19.4311C17.0902 19.5748 16.5342 19.7459 15.5105 19.7926C14.4035 19.8432 14.0714 19.8538 11.2676 19.8538C8.46362 19.8538 8.13165 19.8432 7.02454 19.7926C6.00092 19.7459 5.44496 19.5748 5.07486 19.4311C4.61888 19.2627 4.20632 18.9944 3.86762 18.6456C3.51883 18.3069 3.25047 17.8945 3.08208 17.4383C2.93836 17.0684 2.76725 16.5124 2.72063 15.4886C2.67016 14.3815 2.65942 14.0494 2.65942 11.2458C2.65942 8.44196 2.67016 8.10999 2.72063 7.00273C2.76741 5.97894 2.93836 5.42299 3.08208 5.05305C3.25047 4.59691 3.51899 4.18435 3.86762 3.84565C4.20632 3.49686 4.61888 3.22849 5.07502 3.06026C5.44496 2.91639 6.00092 2.74544 7.0247 2.69865C8.13181 2.64819 8.46394 2.63745 11.2676 2.63745H11.2674C14.0711 2.63745 14.4032 2.64819 15.5105 2.69881C16.5342 2.74544 17.09 2.91655 17.4601 3.06026C17.9161 3.22865 18.3287 3.49702 18.6674 3.84565C19.0162 4.18435 19.2845 4.59691 19.4528 5.05305C19.5966 5.42299 19.7677 5.97894 19.8144 7.00273C19.8648 8.10983 19.8756 8.44196 19.8756 11.2456C19.8756 14.0494 19.865 14.3814 19.8144 15.4886Z" fill="#111D31"/>
<path d="M11.2674 5.85352C8.2896 5.85352 5.87561 8.26767 5.87561 11.2455C5.87561 14.2233 8.2896 16.6373 11.2674 16.6373C14.2454 16.6373 16.6594 14.2233 16.6594 11.2455C16.6594 8.26767 14.2454 5.85352 11.2674 5.85352ZM11.2674 14.7454C9.33454 14.7453 7.76746 13.1783 7.76762 11.2453C7.76762 9.31245 9.33454 7.74536 11.2676 7.74536C13.2006 7.74552 14.7675 9.31245 14.7675 11.2453C14.7675 13.1783 13.2004 14.7454 11.2674 14.7454Z" fill="#111D31"/>
<path d="M18.1324 5.64097C18.1324 6.33679 17.5683 6.90092 16.8725 6.90092C16.1765 6.90092 15.6124 6.33679 15.6124 5.64097C15.6124 4.94498 16.1765 4.38086 16.8725 4.38086C17.5683 4.38086 18.1324 4.94498 18.1324 5.64097Z" fill="#111D31"/>
</g>
<defs>
<clipPath id="clip0_1_402">
<rect width="21" height="21" fill="white" transform="translate(0.767578 0.745605)"/>
</clipPath>
</defs>
</svg>
