<svg width="22" height="22" viewBox="0 0 22 22" fill="none" xmlns="http://www.w3.org/2000/svg">
<g clip-path="url(#clip0_1_406)">
<path d="M6.67925 18.217H3.75722V8.783H6.67925V18.217ZM6.9708 5.77732C6.9708 4.83271 6.20442 4.06601 5.26031 4.06601C4.3126 4.06601 3.54818 4.83271 3.54818 5.77732C3.54818 6.72225 4.3126 7.48895 5.26031 7.48895C6.20442 7.48895 6.9708 6.72225 6.9708 5.77732ZM17.6157 13.0268C17.6157 10.4943 17.0807 8.61602 14.1223 8.61602C12.7007 8.61602 11.7465 9.32696 11.3569 10.0663H11.3542V8.783H8.51563V18.217H11.3542V13.5329C11.3542 12.3062 11.6664 11.1178 13.187 11.1178C14.6868 11.1178 14.7354 12.5206 14.7354 13.6109V18.217H17.6157V13.0268ZM21.3726 19.4275V3.06417C21.3726 1.68305 20.2491 0.55957 18.868 0.55957H2.5046C1.12348 0.55957 0 1.68305 0 3.06417V19.4275C0 20.8086 1.12348 21.9321 2.5046 21.9321H18.868C20.2491 21.9321 21.3726 20.8086 21.3726 19.4275ZM18.868 2.2293C19.3283 2.2293 19.7028 2.60385 19.7028 3.06417V19.4275C19.7028 19.8878 19.3283 20.2624 18.868 20.2624H2.5046C2.04428 20.2624 1.66973 19.8878 1.66973 19.4275V3.06417C1.66973 2.60385 2.04428 2.2293 2.5046 2.2293H18.868Z" fill="#111D31"/>
</g>
<defs>
<clipPath id="clip0_1_406">
<rect width="21.3726" height="21.3726" fill="white" transform="translate(0 0.55957)"/>
</clipPath>
</defs>
</svg>
