<svg width="40" height="40" viewBox="0 0 40 40" fill="none" xmlns="http://www.w3.org/2000/svg">
<rect y="0.384766" width="39.1184" height="39.1184" rx="6.51973" fill="#5D5FEF"/>
<rect x="18.3959" y="10.707" width="1.74636" height="9.31389" fill="white"/>
<rect x="18.3393" y="9.31592" width="1.74636" height="15.4462" transform="rotate(51.8154 18.3393 9.31592)" fill="white"/>
<rect x="18.6965" y="20.3325" width="1.74636" height="12.9765" transform="rotate(33.096 18.6965 20.3325)" fill="white"/>
<rect x="6.53467" y="20.2949" width="1.74636" height="12.9765" transform="rotate(-24.7049 6.53467 20.2949)" fill="white"/>
<rect x="31.0209" y="19.5181" width="1.74636" height="12.2284" transform="rotate(27.4657 31.0209 19.5181)" fill="white"/>
<rect x="6.10968" y="21.0649" width="1.74636" height="22.5935" transform="rotate(-62.2575 6.10968 21.0649)" fill="white"/>
<rect x="32.0705" y="19.9595" width="1.74636" height="22.7771" transform="rotate(62.9104 32.0705 19.9595)" fill="white"/>
<circle cx="19.5603" cy="9.54039" r="2.32847" fill="white"/>
<circle cx="19.5603" cy="20.0209" r="2.32847" fill="white"/>
<circle cx="7.91795" cy="20.0209" r="2.32847" fill="white"/>
<circle cx="12.5753" cy="30.496" r="2.32847" fill="white"/>
<circle cx="31.2027" cy="20.0209" r="2.32847" fill="white"/>
<circle cx="26.5454" cy="30.496" r="2.32847" fill="white"/>
</svg>
