<svg width="43" height="43" viewBox="0 0 43 43" fill="none" xmlns="http://www.w3.org/2000/svg">
<rect y="0.19043" width="42.3564" height="42.3564" rx="7.05941" fill="#5D5FEF"/>
<rect x="19.9187" y="11.3672" width="1.89091" height="10.0849" fill="white"/>
<rect x="19.8575" y="9.86084" width="1.89091" height="16.7248" transform="rotate(51.8154 19.8575 9.86084)" fill="white"/>
<rect x="20.2442" y="21.7896" width="1.89091" height="14.0506" transform="rotate(33.096 20.2442 21.7896)" fill="white"/>
<rect x="7.07568" y="21.7485" width="1.89091" height="14.0506" transform="rotate(-24.7049 7.07568 21.7485)" fill="white"/>
<rect x="33.5889" y="20.9077" width="1.89091" height="13.2407" transform="rotate(27.4657 33.5889 20.9077)" fill="white"/>
<rect x="6.6156" y="22.5825" width="1.89091" height="24.4637" transform="rotate(-62.2575 6.6156 22.5825)" fill="white"/>
<rect x="34.7253" y="21.3853" width="1.89091" height="24.6625" transform="rotate(62.9104 34.7253 21.3853)" fill="white"/>
<circle cx="21.1795" cy="10.1037" r="2.52122" fill="white"/>
<circle cx="21.1795" cy="21.4519" r="2.52122" fill="white"/>
<circle cx="8.57346" cy="21.4519" r="2.52122" fill="white"/>
<circle cx="13.6163" cy="32.7942" r="2.52122" fill="white"/>
<circle cx="33.7856" cy="21.4519" r="2.52122" fill="white"/>
<circle cx="28.7428" cy="32.7942" r="2.52122" fill="white"/>
</svg>
