<svg width="1280" height="523" viewBox="0 0 1280 523" fill="none" xmlns="http://www.w3.org/2000/svg">
<rect x="0.501465" y="0.584961" width="1277.99" height="522.25" fill="black"/>
<mask id="mask0_1_879" style="mask-type:alpha" maskUnits="userSpaceOnUse" x="1" y="0" width="1279" height="523">
<rect x="1.50391" y="0.82666" width="1277.99" height="521.84" fill="#0B0C2A"/>
</mask>
<g mask="url(#mask0_1_879)">
<g opacity="0.3">
<path d="M-166 233.451C-117.578 199.051 -65.8007 167.951 -9.10313 154.251C47.4826 140.651 109.884 146.451 155.398 180.851C209.747 221.951 235.244 298.551 297.086 326.851C337.121 345.151 383.866 339.151 428.262 336.051C472.77 332.951 521.304 334.551 554.182 364.051C613.117 416.951 592.093 531.551 655.947 578.151C698.107 608.851 756.706 594.851 809.042 598.451C875.245 603.051 937.422 639.751 973.767 695.751C1010.11 751.751 1019.84 825.951 999.711 892.351" stroke="#1C2226" stroke-miterlimit="10"/>
<path d="M-159.961 224.951C-111.763 191.051 -59.9856 160.751 -3.62346 147.751C30.3727 139.851 66.4937 138.951 99.707 146.951C121.402 152.151 141.867 161.251 159.76 174.551C213.997 215.051 240.5 289.951 300.888 319.251C322.36 329.651 345.508 333.351 369.552 334.051C389.905 334.651 410.817 333.151 431.393 332.051C460.246 330.451 490.999 330.351 518.061 337.951C533.047 342.151 546.913 348.651 558.767 358.451C582.14 377.651 594.105 405.551 603.723 435.351C617.702 478.251 627.095 525.251 657.737 555.751C660.98 559.051 664.558 562.051 668.36 564.951C710.185 596.351 766.323 585.351 815.64 590.951C863.95 596.551 909.353 620.751 943.796 658.051C953.749 668.851 962.696 680.751 970.636 693.551C984.838 716.651 995.238 742.551 1001.61 769.451C1011.23 809.451 1012.01 851.551 1002.73 890.251" stroke="#23292E" stroke-miterlimit="10"/>
<path d="M-154.034 216.351C-105.948 183.051 -54.2823 153.551 1.85609 141.051C35.7404 133.451 71.5259 132.751 104.516 140.751C126.099 145.951 146.452 154.851 164.344 168.051C218.47 207.851 245.756 281.151 304.802 311.351C326.05 322.151 348.64 326.851 372.459 328.351C392.7 329.651 413.724 328.651 434.413 327.751C463.489 326.551 494.465 326.451 521.864 333.451C536.961 337.351 550.939 343.351 563.24 352.651C587.172 370.651 600.368 396.851 611.215 425.151C626.983 465.851 638.837 511.251 669.926 542.151C673.281 545.451 676.747 548.551 680.55 551.451C722.15 583.451 775.605 575.451 821.902 583.251C867.193 590.851 909.129 616.351 941.448 654.651C950.842 665.751 959.453 677.951 967.057 691.051C980.812 714.651 991.324 740.951 998.369 768.051C1008.88 808.351 1011.9 850.151 1005.41 887.851" stroke="#2A2F37" stroke-miterlimit="10"/>
<path d="M-148.107 207.851C-100.244 175.051 -48.579 146.351 7.33578 134.451C40.9965 127.251 76.4464 126.651 109.212 134.651C130.572 139.851 150.813 148.651 168.706 161.651C222.831 200.851 251.012 272.551 308.716 303.551C329.629 314.851 351.771 320.451 375.479 322.651C395.608 324.651 416.632 324.051 437.544 323.551C466.843 322.751 498.156 322.651 525.778 329.051C541.098 332.651 555.301 338.251 567.826 346.851C592.428 363.651 606.63 388.051 618.82 414.951C636.489 453.551 650.803 497.151 682.227 528.551C685.582 531.851 689.049 535.051 692.851 538.051C734.228 570.751 785.11 565.751 828.277 575.551C870.66 585.151 908.906 611.951 939.323 651.351C948.158 662.751 956.321 675.351 963.702 688.651C977.01 712.851 987.634 739.451 995.238 766.751C1006.76 807.351 1011.9 848.851 1008.21 885.451" stroke="#31363F" stroke-miterlimit="10"/>
<path d="M-142.18 199.351C-94.429 167.151 -42.8756 139.251 12.7037 127.851C46.1407 120.951 81.367 120.551 113.909 128.551C135.157 133.751 155.286 142.451 173.067 155.151C227.193 193.751 256.157 263.851 312.519 295.751C333.207 307.451 354.79 313.951 378.274 317.051C398.292 319.651 419.428 319.651 440.564 319.451C470.087 319.051 501.622 318.851 529.692 324.751C545.124 327.951 559.55 333.251 572.411 341.151C597.684 356.751 612.893 379.551 626.424 404.751C645.883 441.151 662.657 483.151 694.64 514.951C697.995 518.351 701.574 521.551 705.264 524.551C746.306 557.851 794.728 555.851 834.874 567.751C874.238 579.351 908.906 607.451 937.31 647.951C945.586 659.751 953.302 672.551 960.459 686.151C973.319 710.851 984.055 737.951 992.33 765.351C1004.86 806.251 1012.01 847.451 1011.23 883.051" stroke="#383C47" stroke-miterlimit="10"/>
<path d="M-136.253 190.751C-88.614 159.051 -37.1724 131.951 18.1832 121.151C51.3966 114.551 86.2874 114.451 118.718 122.351C139.854 127.551 159.871 136.151 177.54 148.651C231.554 186.651 261.524 255.151 316.433 287.851C336.897 300.051 357.921 307.451 381.294 311.251C401.199 314.551 422.447 315.051 443.695 315.051C473.329 315.051 505.313 314.851 533.606 320.151C549.262 323.051 563.8 327.851 576.884 335.151C602.828 349.551 619.155 370.651 633.917 394.351C655.164 428.651 674.511 468.951 706.83 501.151C710.296 504.551 713.763 507.851 717.453 510.951C758.271 544.851 804.121 545.951 841.137 559.851C877.593 573.551 908.57 602.851 935.074 644.351C942.79 656.451 950.059 669.651 956.992 683.451C969.405 708.651 980.253 736.151 989.087 763.651C1002.51 804.751 1011.9 845.751 1013.91 880.351" stroke="#3F4350" stroke-miterlimit="10"/>
<path d="M-130.326 182.251C-82.9106 151.051 -31.469 124.851 23.6629 114.551C56.6527 108.251 91.3198 108.351 123.415 116.251C144.327 121.451 164.233 129.951 181.902 142.251C235.915 179.651 266.669 246.551 320.235 280.051C340.476 292.751 360.941 301.051 384.201 305.551C403.995 309.451 425.243 310.551 446.714 310.851C476.573 311.251 508.78 311.051 537.408 315.851C553.176 318.451 567.937 322.851 581.357 329.451C607.86 342.651 625.418 362.051 641.409 384.251C664.558 416.351 686.253 455.051 719.019 487.651C722.486 491.051 726.064 494.351 729.755 497.551C770.349 532.151 813.627 536.251 847.623 552.251C881.06 567.951 908.57 598.651 932.949 641.151C940.106 653.551 947.04 667.051 953.638 681.151C965.603 706.951 976.563 734.751 986.068 762.451C1000.49 803.851 1012.01 844.551 1016.82 878.151" stroke="#464958" stroke-miterlimit="10"/>
<path d="M-124.288 173.651C-76.9836 143.051 -25.6539 117.651 29.1426 107.851C61.9087 101.951 96.2403 102.151 128.224 110.051C149.024 115.251 168.818 123.651 186.375 135.651C240.277 172.351 271.925 237.851 324.037 272.151C344.055 285.351 363.96 294.451 386.997 299.851C406.679 304.451 428.039 305.951 449.622 306.551C479.704 307.351 512.246 307.051 541.098 311.351C557.09 313.651 572.075 317.551 585.718 323.651C612.893 335.651 631.457 353.251 648.79 374.051C673.728 404.051 697.883 441.051 731.209 474.051C734.675 477.551 738.254 480.851 741.944 484.051C782.315 519.251 823.021 526.451 853.886 544.451C884.415 562.251 908.235 594.151 930.713 637.751C937.31 650.551 943.797 664.251 950.171 678.751C961.689 705.051 972.649 733.351 982.825 761.151C998.146 802.851 1011.9 843.351 1019.51 875.851" stroke="#4D5060" stroke-miterlimit="10"/>
<path d="M-118.361 165.151C-71.1686 135.051 -19.9507 110.451 34.6222 101.251C67.2764 95.6507 101.273 96.0507 132.92 103.951C153.609 109.051 173.179 117.451 190.848 129.251C244.75 165.351 277.18 229.351 327.951 264.351C347.745 277.951 367.203 288.051 390.017 294.151C409.587 299.351 431.058 301.451 452.865 302.351C483.171 303.551 515.937 303.251 545.236 306.951C561.339 308.951 576.548 312.451 590.527 317.851C618.372 328.651 638.054 344.551 656.618 363.851C683.457 391.651 710.073 427.051 743.733 460.451C747.2 463.951 750.779 467.351 754.469 470.651C794.504 506.551 832.862 516.851 860.483 536.751C888.217 556.651 908.235 589.751 928.811 634.351C934.85 647.451 940.889 661.551 947.039 676.251C958.111 703.051 969.182 731.751 980.029 759.751C996.356 801.751 1012.24 841.951 1022.64 873.451" stroke="#545669" stroke-miterlimit="10"/>
<path d="M-112.434 156.651C-65.4652 127.151 -14.1354 103.351 40.1019 94.6508C72.5325 89.3508 106.305 89.9508 137.729 97.8508C158.194 102.951 177.764 111.151 195.321 122.851C249.223 158.351 282.437 220.751 331.865 256.651C351.435 270.751 370.335 281.751 393.036 288.651C412.494 294.551 433.966 297.151 455.996 298.351C486.525 299.951 519.515 299.651 549.15 302.751C565.477 304.451 580.91 307.451 595 312.251C623.517 321.851 644.317 336.051 664.111 353.851C692.739 379.551 721.815 413.251 755.923 447.051C759.501 450.551 763.08 454.051 766.658 457.351C806.47 493.851 842.255 507.351 866.858 529.151C891.684 551.251 908.011 585.551 926.575 631.151C932.054 644.551 937.758 658.951 943.573 673.951C954.197 701.251 965.379 730.351 976.786 758.551C994.12 800.851 1012.12 840.751 1025.32 871.251" stroke="#5B5D71" stroke-miterlimit="10"/>
<path d="M-106.507 148.051C-59.6501 119.051 -8.43221 96.0506 45.4696 87.9506C77.6765 83.0506 111.114 83.8506 142.426 91.6506C162.779 96.7506 182.237 104.851 199.683 116.251C253.473 151.151 287.469 212.051 335.667 248.651C354.902 263.251 373.354 275.151 395.832 282.751C415.178 289.351 436.761 292.351 458.903 293.851C489.657 295.851 522.982 295.551 552.84 298.051C569.279 299.451 584.935 301.951 599.361 306.151C628.549 314.551 650.356 327.051 671.491 343.351C702.021 366.851 733.557 398.951 768.112 433.051C771.691 436.651 775.269 440.151 778.96 443.551C818.547 480.751 851.872 497.351 873.232 521.151C895.15 545.351 907.787 580.851 924.45 627.551C929.37 641.351 934.626 656.051 940.218 671.251C950.394 699.151 961.689 728.651 973.767 756.951C991.995 799.551 1012.24 839.151 1028.23 868.651" stroke="#626379" stroke-miterlimit="10"/>
<path d="M-100.58 139.551C-53.835 111.151 -2.72886 88.9506 50.9493 81.3506C82.9326 76.7506 116.146 77.7506 147.123 85.5506C167.364 90.6506 186.599 98.6506 204.044 109.851C257.834 144.151 292.613 203.651 339.47 240.851C358.481 255.951 376.373 268.751 398.739 277.151C417.974 284.351 439.669 287.951 461.923 289.751C492.788 292.151 526.449 291.751 556.643 293.751C573.305 294.851 589.073 296.951 603.835 300.451C633.693 307.651 656.618 318.451 678.984 333.251C711.415 354.651 745.299 384.951 780.302 419.551C783.88 423.151 787.571 426.651 791.149 430.151C830.513 467.951 861.266 487.851 879.606 513.451C898.505 539.951 907.564 576.551 922.213 624.151C926.575 638.251 931.383 653.251 936.751 668.751C946.48 697.151 957.887 727.051 970.524 755.551C989.758 798.451 1012.12 837.751 1030.91 866.251" stroke="#696A82" stroke-miterlimit="10"/>
<path d="M-94.6527 130.951C-48.1316 103.051 2.97449 81.6506 56.429 74.6506C88.1886 70.3506 121.066 71.5506 151.931 79.3506C172.061 84.4506 191.184 92.3506 208.517 103.351C262.195 136.951 297.869 195.051 343.384 233.051C362.171 248.651 379.505 262.351 401.759 271.451C420.881 279.351 442.576 283.451 465.166 285.451C496.255 288.251 530.251 287.851 560.78 289.251C577.667 290.051 593.658 291.651 608.643 294.551C639.285 300.551 663.216 309.651 686.812 322.951C721.144 342.151 757.488 370.851 792.827 405.851C796.517 409.451 800.096 413.051 803.674 416.651C842.703 455.051 870.884 478.251 886.204 505.651C902.196 534.351 907.564 572.051 920.312 620.751C924.114 635.251 928.588 650.551 933.62 666.251C942.902 695.151 954.42 725.451 967.728 754.151C987.969 797.351 1012.46 836.351 1034.04 863.851" stroke="#70708A" stroke-miterlimit="10"/>
<path d="M-88.614 122.451C-42.2047 95.151 8.78954 74.551 61.9086 68.051C93.4445 64.151 126.099 65.451 156.628 73.251C176.534 78.351 195.545 86.151 212.878 96.851C266.557 129.851 302.901 186.451 347.186 225.151C365.749 241.351 382.524 255.751 404.554 265.751C423.565 274.351 445.372 278.951 468.073 281.251C499.386 284.451 533.606 284.051 564.471 284.851C581.469 285.351 597.684 286.551 612.893 288.851C644.205 293.551 669.255 301.051 694.081 312.851C730.202 329.951 769.007 356.951 804.904 392.351C808.595 396.051 812.173 399.651 815.752 403.251C854.556 442.351 880.165 468.751 892.355 497.951C905.327 528.951 907.116 567.751 917.964 617.451C921.207 632.251 925.233 647.851 930.041 663.851C938.876 693.351 950.506 724.051 964.373 752.751C985.509 796.251 1012.24 834.951 1036.61 861.351" stroke="#777792" stroke-miterlimit="10"/>
<path d="M-82.687 113.951C-36.3896 87.1507 14.4929 67.4507 67.3882 61.4507C98.8124 57.8507 131.131 59.4507 161.437 67.1507C181.231 72.2507 200.13 79.9507 217.464 90.4507C271.03 122.851 308.157 178.051 351.212 217.351C369.44 234.051 385.767 249.351 407.686 260.051C426.585 269.251 448.503 274.351 471.317 277.051C502.853 280.651 537.408 280.151 568.496 280.451C585.718 280.651 602.157 281.351 617.59 283.051C649.573 286.551 675.741 292.351 701.797 302.551C739.819 317.451 780.973 342.851 817.317 378.651C821.008 382.351 824.698 386.051 828.165 389.751C866.746 429.451 889.671 459.151 898.953 490.251C908.906 523.451 907.116 563.351 915.951 614.051C918.635 629.151 922.213 645.151 926.798 661.351C935.186 691.351 946.928 722.451 961.466 751.351C983.608 795.151 1012.46 833.551 1039.63 858.951" stroke="#7E7E9B" stroke-miterlimit="10"/>
<path d="M-76.7599 105.351C-30.6862 79.1509 20.1963 60.1509 72.868 54.7509C104.068 51.4509 136.052 53.2509 166.246 61.0509C185.928 66.1509 204.715 73.7509 221.937 84.0509C275.503 115.851 313.413 169.651 355.126 209.651C373.13 226.851 389.01 243.051 410.705 254.451C429.492 264.351 451.411 269.951 474.448 272.851C506.208 276.851 540.987 276.351 572.411 276.051C589.744 275.851 606.407 276.151 622.175 277.251C654.829 279.551 682.004 283.651 709.402 292.351C749.325 305.051 792.939 328.851 829.619 365.051C833.421 368.751 836.999 372.551 840.578 376.251C878.824 416.651 899.177 449.551 905.439 482.451C912.261 517.951 907.005 558.951 913.938 610.651C916.063 626.151 919.194 642.351 923.555 658.951C931.495 689.551 943.349 720.951 958.446 750.051C981.595 794.151 1012.57 832.251 1042.65 856.651" stroke="#8584A3" stroke-miterlimit="10"/>
<path d="M-70.8331 96.8509C-24.8711 71.1509 25.8995 53.0509 78.3475 48.1509C109.324 45.1509 141.084 47.1509 170.942 54.9509C190.401 60.0509 209.076 67.5509 226.298 77.5509C279.753 108.751 318.446 161.151 358.928 201.751C376.597 219.451 392.029 236.551 413.501 248.751C432.176 259.351 454.207 265.451 477.355 268.651C509.339 273.051 544.453 272.551 576.213 271.751C593.77 271.251 610.544 271.051 626.648 271.551C659.973 272.551 688.266 275.051 716.894 282.251C758.719 292.851 804.68 314.951 841.92 351.551C845.722 355.251 849.412 359.051 852.879 362.851C890.901 403.851 908.458 439.951 911.925 474.751C915.615 512.451 906.781 554.551 911.813 607.351C913.379 623.151 916.063 639.751 920.2 656.551C927.693 687.651 939.547 719.551 955.315 748.751C979.358 793.151 1012.57 830.951 1045.45 854.351" stroke="#8C8BAC" stroke-miterlimit="10"/>
<path d="M-64.9061 88.3506C-19.056 63.2506 31.6028 45.8506 83.7154 41.5506C114.469 38.9506 145.893 41.0506 175.639 48.8506C194.986 53.8506 213.549 61.2506 230.659 71.1506C284.114 101.651 323.478 152.751 362.73 194.051C380.175 212.351 395.049 230.251 416.408 243.151C434.972 254.451 457.114 260.951 480.487 264.551C512.582 269.351 548.032 268.851 580.127 267.451C597.796 266.651 614.906 266.351 631.121 265.851C665.117 264.951 694.528 266.451 724.387 272.151C768 280.551 816.534 301.051 854.109 338.051C857.911 341.851 861.602 345.651 865.068 349.551C902.867 391.251 917.74 430.551 918.187 467.151C918.747 507.051 906.445 550.351 909.577 604.051C910.471 620.151 912.82 637.051 916.734 654.151C923.779 685.751 935.745 718.051 952.184 747.451C977.233 792.151 1012.57 829.651 1048.25 852.051" stroke="#9391B4" stroke-miterlimit="10"/>
<path d="M-58.9792 79.7507C-13.3527 55.1507 37.3061 38.6507 89.195 34.8507C119.724 32.5507 150.925 34.9507 180.336 42.6507C199.571 47.6507 218.023 54.9507 235.021 64.5507C288.475 94.4507 328.398 144.151 366.532 186.051C383.642 204.851 398.068 223.651 419.316 237.351C437.768 249.251 459.91 256.351 483.506 260.151C515.825 265.351 551.61 264.751 583.929 262.851C601.822 261.751 619.043 260.651 635.594 259.951C670.261 258.451 700.791 257.551 731.879 261.851C777.394 268.051 828.277 286.951 866.299 324.351C870.213 328.151 873.791 332.051 877.258 335.951C914.833 378.251 926.91 420.751 924.45 459.351C921.878 501.451 906.11 545.851 907.34 600.651C907.675 617.151 909.688 634.351 913.267 651.651C919.865 683.851 931.943 716.451 948.941 746.051C974.997 790.951 1012.35 828.251 1050.93 849.651" stroke="#9A98BC" stroke-miterlimit="10"/>
<path d="M-52.9404 71.2506C-7.42574 47.2506 43.1212 31.4506 94.7865 28.2506C125.092 26.2506 156.069 28.8506 185.257 36.5506C204.268 41.5506 222.608 48.7507 239.606 58.1507C292.948 87.4506 333.654 135.751 370.558 178.251C387.333 197.651 401.311 217.251 422.335 231.651C440.675 244.251 462.929 251.851 486.637 255.951C519.18 261.551 555.189 260.951 587.843 258.451C605.847 257.051 623.405 255.451 640.179 254.151C675.517 251.351 707.165 248.851 739.484 251.651C786.899 255.751 840.13 272.851 878.712 310.751C882.626 314.551 886.316 318.551 889.783 322.551C927.022 365.451 936.416 411.151 931.16 451.651C925.344 495.951 906.11 541.551 905.439 597.351C905.215 614.151 906.781 631.651 910.136 649.251C916.286 681.951 928.476 715.051 946.145 744.751C973.096 789.951 1012.68 826.951 1054.06 847.351" stroke="#A19EC5" stroke-miterlimit="10"/>
<path d="M-47.0133 62.651C-1.61051 39.151 48.8246 24.251 100.154 21.551C130.348 19.951 160.878 22.651 189.954 30.351C208.853 35.351 227.081 42.451 244.079 51.651C297.422 80.351 338.687 127.251 374.472 170.451C390.911 190.351 404.443 210.851 425.355 226.051C443.583 239.351 465.949 247.451 489.769 251.751C522.535 257.651 558.879 257.151 591.757 254.051C609.985 252.351 627.654 250.251 644.764 248.351C680.773 244.351 713.428 240.151 747.088 241.451C796.293 243.351 852.096 258.851 891.013 297.151C894.927 301.051 898.617 305.051 902.084 309.051C939.1 352.651 945.698 401.451 937.534 443.851C928.588 490.251 905.886 537.051 903.314 593.851C902.531 611.051 903.65 628.751 906.781 646.651C912.484 679.851 924.785 713.351 943.014 743.251C970.971 788.751 1012.68 825.451 1056.86 844.851" stroke="#A8A5CD" stroke-miterlimit="10"/>
<path d="M-41.0864 54.151C4.09271 31.151 54.5278 17.151 105.634 14.951C135.604 13.651 165.91 16.551 194.65 24.251C213.438 29.251 231.442 36.251 248.44 45.151C301.671 73.151 343.719 118.751 378.274 162.551C394.378 183.051 407.462 204.351 428.262 220.251C446.379 234.251 468.744 242.751 492.9 247.451C525.889 253.751 562.458 253.151 595.783 249.551C614.235 247.551 632.016 244.951 649.349 242.451C686.029 237.151 719.802 231.251 754.693 231.151C805.799 230.751 863.95 244.751 903.314 283.451C907.34 287.351 910.919 291.351 914.385 295.551C951.177 339.751 954.979 391.751 944.02 436.051C931.942 484.651 905.774 532.651 901.189 590.451C899.847 607.951 900.518 626.051 903.426 644.151C908.682 677.951 921.095 711.751 939.994 741.851C968.958 787.651 1012.8 824.051 1059.76 842.451" stroke="#AFABD5" stroke-miterlimit="10"/>
<path d="M-35.1594 45.6506C9.90788 23.2506 60.2312 9.9506 111.114 8.3506C140.86 7.3506 170.831 10.5506 199.459 18.1506C218.023 23.1506 236.027 30.0506 252.913 38.7506C306.144 66.1506 348.751 110.351 382.188 154.751C398.068 175.751 410.593 197.951 431.17 214.651C449.174 229.351 471.652 238.351 495.919 243.351C529.132 250.051 566.036 249.451 599.585 245.251C618.149 242.951 636.265 239.851 653.822 236.751C691.174 230.151 726.064 222.651 762.185 221.051C815.192 218.451 875.804 230.851 915.615 269.951C919.641 273.851 923.332 277.951 926.687 282.151C963.255 327.051 964.373 382.151 950.394 428.451C935.074 479.151 905.439 528.351 899.065 587.251C897.164 605.051 897.499 623.451 900.071 641.851C904.88 676.151 917.405 710.451 936.863 740.551C966.721 786.651 1012.8 822.751 1062.56 840.151" stroke="#B6B2DE" stroke-miterlimit="10"/>
<path d="M-29.2324 37.0506C15.6112 15.1506 65.9345 2.75061 116.481 1.65061C146.004 0.950607 175.751 4.35061 204.044 11.9506C222.496 16.9506 240.389 23.7506 257.163 32.2506C310.282 59.0506 353.56 101.851 385.879 146.951C401.311 168.551 413.501 191.551 433.966 208.951C451.858 224.251 474.336 233.851 498.827 239.051C532.152 246.151 569.391 245.551 603.275 240.751C622.063 238.151 640.291 234.551 658.184 230.951C696.206 223.051 732.103 213.951 769.566 210.851C824.363 206.151 887.434 216.851 927.693 256.351C931.719 260.351 935.409 264.451 938.876 268.751C975.109 314.251 973.543 372.551 956.657 420.751C938.205 473.651 904.992 523.951 896.828 583.851C894.256 602.051 894.256 620.751 896.604 639.451C900.966 674.251 913.602 708.951 933.732 739.251C964.597 785.651 1012.8 821.451 1065.36 837.751" stroke="#BDB8E6" stroke-miterlimit="10"/>
<path d="M-23.3055 28.5509C21.4263 7.25095 71.6377 -4.44905 121.961 -4.94905C151.26 -5.24905 180.783 -1.74905 208.853 5.85095C227.193 10.851 244.862 17.4509 261.636 25.7509C314.755 51.9509 358.592 93.451 389.793 139.051C404.89 161.151 416.632 185.051 436.873 203.151C454.654 219.151 477.244 229.151 501.846 234.751C535.395 242.251 572.97 241.551 607.078 236.251C625.977 233.351 644.429 229.351 662.657 225.051C701.35 215.951 738.366 205.151 777.059 200.451C833.756 193.551 899.176 202.651 939.882 242.551C943.908 246.551 947.71 250.751 951.065 255.051C987.074 301.251 982.713 362.551 963.031 412.751C941.448 467.751 904.768 519.351 894.592 580.251C891.46 598.751 891.013 617.751 893.138 636.751C897.052 672.151 909.8 707.151 930.489 737.651C962.36 784.351 1012.68 819.851 1068.04 835.151" stroke="#C4BFEE" stroke-miterlimit="10"/>
<path d="M-17.2667 19.9506C27.3533 -0.849407 77.4529 -11.6494 127.553 -11.6494C156.628 -11.6494 185.816 -7.94941 213.773 -0.349411C232.001 4.55059 249.559 11.1506 266.221 19.2506C319.228 44.8506 363.625 84.9506 393.819 131.251C408.58 153.951 419.875 178.551 440.004 197.551C457.673 214.251 480.375 224.751 505.201 230.651C538.973 238.551 576.772 237.851 611.327 232.051C630.45 228.851 649.014 224.351 667.466 219.451C706.718 208.951 744.964 196.651 784.887 190.451C843.485 181.451 911.366 188.851 952.519 229.151C956.657 233.151 960.347 237.451 963.702 241.751C999.488 288.551 992.331 353.051 969.741 405.151C944.915 462.151 904.768 515.051 892.802 577.051C889.112 595.851 888.329 615.251 890.118 634.451C893.585 670.351 906.445 705.751 927.805 736.451C960.571 783.451 1013.13 818.651 1071.28 832.951" stroke="#CBC5F7" stroke-miterlimit="10"/>
<path d="M-11.3397 11.451C58.8893 -20.449 143.097 -27.049 218.47 -6.449C293.843 14.151 359.375 61.851 397.509 123.451C411.935 146.751 422.783 172.151 442.8 191.851C484.177 232.751 554.518 238.651 615.018 227.551C675.406 216.451 731.768 191.351 792.267 180.151C852.655 168.951 922.996 174.751 964.597 215.451C1013.02 262.951 1003.85 338.251 976.003 397.351C948.046 456.551 904.432 510.551 890.454 573.551C878.264 628.551 890.677 687.651 924.45 734.951C958.223 782.251 1012.91 817.151 1073.85 830.451" stroke="#D2CCFF" stroke-miterlimit="10"/>
<path d="M7.33582 7.65099C77.1175 -23.349 160.319 -29.149 234.573 -8.14901C308.828 12.851 373.578 60.151 410.593 121.451C425.019 145.351 435.084 171.851 454.43 192.251C493.682 233.651 561.675 240.651 620.274 231.551C678.76 222.451 734.004 199.751 793.833 189.951C854.445 179.951 925.121 184.651 967.84 224.251C1017.27 270.351 1010.89 345.151 984.055 404.751C957.216 464.351 912.484 518.651 896.94 580.051C883.52 633.151 894.815 689.951 926.127 735.751C957.44 781.551 1008.99 816.051 1067.7 829.851" stroke="#CDC9FE" stroke-miterlimit="10"/>
<path d="M26.1232 3.95075C95.3457 -26.0492 177.652 -31.1493 250.901 -9.84925C324.149 11.4507 388.004 58.5508 423.789 119.551C438.215 144.151 447.385 171.551 466.061 192.651C503.076 234.451 568.832 242.651 625.418 235.551C682.115 228.551 736.241 208.151 795.399 199.651C856.234 190.951 927.358 194.351 971.195 232.951C1021.74 277.551 1017.94 352.051 992.331 411.951C966.722 471.851 920.871 526.551 903.65 586.251C888.888 637.351 899.177 692.051 928.029 736.351C956.992 780.651 1005.3 814.751 1061.78 829.051" stroke="#C7C6FE" stroke-miterlimit="10"/>
<path d="M44.7987 0.150673C113.574 -28.8493 194.874 -33.1493 267.116 -11.6493C339.358 9.85067 402.206 56.8507 436.873 117.551C451.299 142.851 459.575 171.151 477.691 193.051C512.582 235.251 575.877 244.551 630.674 239.551C685.47 234.551 738.477 216.451 797.076 209.351C858.023 201.951 929.706 204.051 974.55 241.651C1026.21 284.851 1024.98 358.951 1000.61 419.151C976.227 479.351 929.147 534.351 910.248 592.551C894.368 641.551 903.314 694.151 929.818 737.051C956.321 779.851 1001.5 813.451 1055.74 828.351" stroke="#C2C3FD" stroke-miterlimit="10"/>
<path d="M63.5861 -3.64922C131.802 -31.7492 212.319 -35.2492 283.443 -13.3492C354.567 8.55079 416.52 55.3508 450.069 115.651C464.495 141.651 471.876 170.751 489.433 193.551C522.199 236.051 583.146 246.651 636.042 243.751C688.937 240.851 740.826 225.051 798.865 219.251C860.148 213.051 932.054 214.051 978.128 250.551C1030.91 292.351 1032.25 365.951 1009.11 426.551C985.844 487.151 937.758 542.251 917.181 598.951C900.071 645.951 907.899 696.451 931.943 737.851C955.986 779.251 998.034 812.351 1050.03 827.851" stroke="#BDC0FD" stroke-miterlimit="10"/>
<path d="M82.2616 -7.34895C150.03 -34.4489 229.541 -37.2489 299.546 -15.0489C369.552 7.15105 430.611 53.751 463.041 113.651C477.467 140.351 484.065 170.351 500.951 193.851C531.593 236.651 590.191 248.551 641.186 247.651C692.18 246.751 743.062 233.451 800.431 228.851C861.937 223.951 934.179 223.751 981.371 259.151C1035.16 299.551 1039.3 372.751 1017.16 433.651C995.126 494.551 945.921 549.951 923.555 605.151C905.327 650.151 911.925 698.451 933.508 738.351C955.091 778.251 994.008 810.951 1043.66 826.951" stroke="#B8BDFC" stroke-miterlimit="10"/>
<path d="M101.049 -11.1491C168.259 -37.2491 246.875 -39.3491 315.874 -16.7491C384.872 5.85091 444.813 52.2509 476.237 111.751C490.663 139.151 496.366 169.951 512.582 194.351C541.21 237.351 597.237 250.551 646.442 251.751C695.535 252.951 745.299 241.951 802.108 238.651C863.838 235.151 936.416 233.551 984.838 267.951C1039.75 306.951 1046.46 379.751 1025.54 441.051C1004.63 502.351 954.532 557.851 930.377 611.551C911.142 654.451 916.286 700.751 935.521 739.151C954.756 777.551 990.429 809.751 1037.85 826.351" stroke="#B2BAFC" stroke-miterlimit="10"/>
<path d="M119.724 -14.949C186.487 -40.049 264.096 -41.449 332.089 -18.549C400.081 4.35097 458.904 50.651 489.321 109.751C503.747 137.851 508.668 169.451 524.212 194.651C550.827 237.751 604.394 252.451 651.586 255.651C698.89 258.851 747.536 250.351 803.674 248.351C865.628 246.151 938.652 243.351 988.081 276.651C1044 314.251 1053.39 386.551 1033.71 448.251C1014.03 509.951 962.919 565.451 936.975 617.851C916.734 658.651 920.536 702.851 937.31 739.851C954.085 776.751 986.515 808.551 1031.81 825.651" stroke="#ADB6FB" stroke-miterlimit="10"/>
<path d="M138.512 -18.6493C204.715 -42.8493 281.43 -43.4493 348.304 -20.2493C415.178 2.95068 472.994 49.1507 502.405 107.851C516.831 136.651 520.857 168.951 535.842 195.151C560.557 238.351 611.551 254.551 656.842 259.751C702.245 265.051 749.884 256.151 805.352 258.151C867.529 260.351 940.889 253.251 991.548 285.451C1048.47 321.651 1060.55 393.551 1041.98 455.551C1023.42 517.551 971.53 573.251 943.573 624.151C922.325 662.951 924.785 705.051 939.1 740.451C953.414 775.951 982.713 807.151 1025.77 824.851" stroke="#A8B3FB" stroke-miterlimit="10"/>
<path d="M157.187 -22.4493C222.943 -45.6493 298.764 -45.5493 364.519 -21.9493C430.387 1.55072 487.085 47.6507 515.489 105.851C529.915 135.351 533.158 168.451 547.473 195.451C570.286 238.751 618.596 256.351 662.098 263.751C705.6 271.051 752.344 264.451 807.029 267.851C869.43 271.651 943.126 263.051 994.903 294.151C1052.94 328.951 1067.59 400.451 1050.26 462.751C1032.92 525.051 980.141 580.851 950.283 630.351C928.14 667.051 929.035 707.051 941.001 741.051C952.966 775.051 979.023 805.851 1019.84 824.051" stroke="#A3B0FA" stroke-miterlimit="10"/>
<path d="M175.975 -26.2489C241.283 -48.4489 316.097 -47.649 380.847 -23.749C445.596 0.151049 501.175 46.0511 528.685 103.851C542.999 134.051 545.572 167.851 559.103 195.851C580.015 239.151 625.753 258.351 667.354 267.751C708.954 277.151 754.581 275.951 808.706 277.551C871.555 279.451 945.362 272.751 998.369 302.851C1057.42 336.251 1074.86 407.351 1058.65 469.951C1042.43 532.551 988.976 588.451 956.992 636.651C934.067 671.251 933.396 709.251 942.902 741.751C952.407 774.251 975.333 804.651 1013.91 823.351" stroke="#9DADFA" stroke-miterlimit="10"/>
<path d="M194.65 -29.9492C259.4 -51.1492 333.319 -49.5492 397.062 -25.4492C460.805 -1.34917 515.266 44.5508 541.769 101.951C556.083 132.851 557.985 167.351 570.733 196.351C589.856 239.751 632.799 260.451 672.61 271.851C712.309 283.251 756.817 284.551 810.272 287.351C873.344 290.651 947.487 282.651 1001.61 311.551C1061.66 343.651 1081.79 414.151 1066.81 477.151C1051.82 540.151 997.587 596.051 963.59 642.851C939.882 675.451 937.646 711.251 944.691 742.251C951.736 773.251 971.53 803.151 1007.87 822.451" stroke="#98AAF9" stroke-miterlimit="10"/>
<path d="M213.438 -33.749C277.74 -54.049 350.653 -51.649 413.277 -27.149C475.902 -2.64903 529.244 43.151 554.853 100.051C569.056 131.651 570.286 166.851 582.363 196.751C599.809 240.051 639.956 262.351 677.754 275.851C715.552 289.351 759.054 293.151 811.838 297.151C875.245 301.951 949.612 292.551 1004.86 320.351C1065.91 351.051 1088.73 421.151 1074.86 484.551C1060.99 547.951 1006.31 603.851 969.965 649.351C945.698 679.851 941.56 713.651 946.257 743.151C950.954 772.651 967.504 802.151 1001.61 821.951" stroke="#93A7F9" stroke-miterlimit="10"/>
<path d="M232.113 -37.4492C295.856 -56.7492 367.874 -53.6492 429.492 -28.8492C491.11 -4.04923 543.223 41.6508 567.825 98.1508C582.028 130.551 582.587 166.351 593.882 197.251C609.65 240.551 647.001 264.451 682.898 279.951C718.907 295.451 761.291 301.851 813.403 306.951C877.034 313.151 951.625 302.451 1008.21 329.151C1070.28 358.451 1095.77 428.151 1083.14 491.851C1070.5 555.551 1015.26 611.551 976.674 655.651C951.736 684.151 945.921 715.751 948.158 743.851C950.394 771.951 963.814 800.951 995.685 821.251" stroke="#8EA4F9" stroke-miterlimit="10"/>
<path d="M250.901 -41.2494C314.196 -59.5494 385.32 -55.7494 445.82 -30.6494C506.319 -5.5494 557.314 40.1506 581.021 96.0506C595.112 129.151 595.224 165.651 605.512 197.451C619.603 240.751 654.046 266.251 688.154 283.851C722.262 301.451 763.639 310.351 815.081 316.551C879.047 324.251 953.861 312.151 1011.57 337.751C1074.64 365.751 1102.93 434.851 1091.41 498.951C1079.89 563.051 1024.31 619.151 983.384 661.851C957.999 688.351 950.283 717.851 950.059 744.351C949.835 770.951 960.124 799.451 989.759 820.451" stroke="#88A1F8" stroke-miterlimit="10"/>
<path d="M269.576 -45.049C332.312 -62.449 402.541 -57.849 462.035 -32.349C521.528 -6.84903 571.18 38.651 594.105 94.151C608.084 127.951 607.637 165.051 617.142 197.951C629.667 241.151 661.203 268.251 693.41 287.951C725.617 307.651 765.987 319.051 816.758 326.351C881.06 335.551 956.098 322.151 1015.03 346.551C1079.11 373.151 1110.09 441.851 1099.69 506.251C1089.4 570.651 1033.48 626.951 989.982 668.151C964.038 692.751 954.532 719.951 951.848 745.051C949.164 770.151 956.321 798.251 983.72 819.751" stroke="#839EF8" stroke-miterlimit="10"/>
<path d="M288.364 -48.7492C350.653 -65.1492 419.875 -59.8492 478.25 -34.0492C536.625 -8.2492 585.159 37.2508 607.19 92.2508C621.056 126.851 620.162 164.551 628.773 198.451C639.732 241.651 668.36 270.351 698.666 292.051C728.972 313.751 768.336 327.851 818.436 336.151C882.961 346.951 958.334 332.051 1018.39 355.351C1083.47 380.651 1117.13 448.851 1107.96 513.551C1098.79 578.351 1042.65 634.851 996.692 674.551C970.412 697.251 958.782 722.151 953.749 745.851C948.717 769.451 952.631 797.051 977.681 819.151" stroke="#7E9BF7" stroke-miterlimit="10"/>
<path d="M307.039 -52.5491C368.769 -67.9491 437.097 -61.9491 494.465 -35.8491C551.834 -9.7491 599.026 35.6509 620.274 90.2509C634.029 125.551 632.687 163.951 640.403 198.751C649.797 241.951 675.406 272.251 703.81 295.951C732.215 319.751 770.461 336.351 820.001 345.751C884.75 358.051 960.459 341.751 1021.74 363.951C1087.83 387.851 1124.18 455.551 1116.24 520.751C1108.3 585.951 1051.94 642.751 1003.29 680.751C976.563 701.551 963.031 724.251 955.539 746.351C948.046 768.451 948.829 795.651 971.642 818.251" stroke="#7898F7" stroke-miterlimit="10"/>
<path d="M325.714 -56.3494C386.997 -70.7494 454.318 -64.0494 510.681 -37.5494C567.043 -11.0494 613.005 34.2506 633.358 88.2506C647.001 124.351 645.323 163.251 651.921 199.151C659.861 242.251 682.451 274.151 708.954 299.951C735.458 325.751 772.697 345.051 821.567 355.551C886.651 369.451 962.584 351.651 1024.98 372.751C1092.08 395.351 1131.22 462.551 1124.4 528.051C1117.58 593.551 1061.22 650.851 1009.89 687.051C982.937 706.051 967.281 726.351 957.328 747.051C947.487 767.751 945.026 794.451 965.603 817.551" stroke="#7395F6" stroke-miterlimit="10"/>
<path d="M344.502 -60.0491C405.337 -73.5491 471.652 -65.9491 527.008 -39.2491C582.252 -12.5491 626.983 32.8509 646.554 86.3509C660.085 123.151 658.072 162.751 663.663 199.551C670.15 242.651 689.608 276.151 714.322 304.051C739.037 331.951 775.158 353.851 823.356 365.351C888.665 380.851 964.82 361.651 1028.56 381.551C1096.67 402.851 1138.49 469.551 1132.79 535.351C1127.2 601.151 1070.83 659.051 1016.71 693.451C989.423 710.751 971.642 728.651 959.341 747.851C947.04 767.051 941.448 793.251 959.788 816.951" stroke="#6E92F6" stroke-miterlimit="10"/>
<path d="M363.177 -63.8492C423.565 -76.3492 488.986 -68.0492 543.223 -41.0492C597.46 -13.9492 640.85 31.3508 659.637 84.3508C672.945 121.951 670.82 162.151 675.294 199.951C680.438 243.051 696.765 278.151 719.578 308.051C742.391 337.951 777.394 362.551 824.922 375.051C890.454 392.251 966.945 371.451 1031.81 390.251C1100.92 410.251 1145.43 476.451 1140.95 542.551C1136.48 608.651 1080.23 667.351 1023.2 699.651C995.573 715.251 975.78 730.651 961.018 748.351C946.257 766.051 937.534 791.851 953.637 816.051" stroke="#698EF5" stroke-miterlimit="10"/>
<path d="M381.965 -67.6494C441.794 -79.1494 506.319 -70.1494 559.438 -42.7494C612.557 -15.3494 654.717 29.8506 672.722 82.4506C685.918 120.751 683.457 161.651 686.924 200.351C690.726 243.451 703.922 280.051 724.834 312.051C745.746 344.051 779.631 371.351 826.599 384.751C892.355 403.551 969.182 381.351 1035.27 398.951C1105.39 417.651 1152.58 483.251 1149.34 549.751C1146.1 616.251 1089.96 675.851 1030.02 705.951C1002.06 719.951 980.253 732.851 963.031 749.051C945.921 765.251 933.956 790.651 947.822 815.351" stroke="#638BF5" stroke-miterlimit="10"/>
<path d="M400.64 -71.349C459.91 -81.849 523.541 -72.149 575.654 -44.449C627.766 -16.749 668.472 28.451 685.806 80.451C698.778 119.551 696.318 161.051 698.442 200.751C700.903 243.851 710.967 282.051 729.978 316.051C748.989 350.051 781.867 380.051 828.165 394.451C894.032 414.951 971.307 391.151 1038.52 407.651C1109.64 425.051 1159.52 490.151 1157.39 556.951C1155.27 623.851 1099.24 684.451 1036.39 712.151C1008.1 724.651 984.167 734.851 964.597 749.651C945.027 764.451 929.818 789.251 941.56 814.551" stroke="#5E88F4" stroke-miterlimit="10"/>
<path d="M419.428 -75.149C478.25 -84.749 540.875 -74.249 591.869 -46.249C642.863 -18.249 682.339 26.951 698.89 78.451C711.638 118.251 709.066 160.451 710.073 201.151C711.191 244.351 718.013 284.051 735.122 320.051C752.232 356.151 783.992 388.851 829.73 404.251C895.822 426.451 973.32 401.151 1041.76 416.451C1113.89 432.551 1166.56 497.151 1165.55 564.351C1164.55 631.551 1108.63 693.451 1042.99 718.651C1014.36 729.651 988.416 737.251 966.386 750.451C944.356 763.751 926.016 788.151 935.521 813.951" stroke="#5985F4" stroke-miterlimit="10"/>
<path d="M438.103 -78.9491C496.366 -87.5491 558.096 -76.3491 608.084 -47.9491C658.072 -19.6491 696.206 25.4509 711.974 76.5509C724.499 117.151 721.927 159.951 721.703 201.551C721.479 244.751 725.17 285.951 740.378 324.151C755.587 362.251 786.229 397.651 831.408 414.051C897.611 438.051 975.556 411.151 1045.23 425.251C1118.36 440.051 1173.72 504.051 1173.94 571.651C1174.17 639.251 1118.36 702.351 1049.81 724.851C1020.85 734.351 992.889 739.251 968.399 751.051C943.908 762.851 922.437 786.751 929.706 813.251" stroke="#5482F3" stroke-miterlimit="10"/>
<path d="M456.891 -82.6492C514.706 -90.2492 575.542 -78.3492 624.411 -49.6492C673.281 -20.9492 710.073 24.0508 725.17 74.6508C737.471 115.951 734.899 159.551 733.445 202.051C731.991 245.351 732.327 288.051 745.746 328.251C759.166 368.451 788.577 406.551 833.197 423.851C899.512 449.551 977.904 421.151 1048.69 434.051C1122.84 447.651 1180.88 511.051 1182.33 578.951C1183.78 646.851 1127.87 711.651 1056.52 731.351C1027.11 739.451 997.139 741.651 970.3 751.951C943.461 762.251 918.747 785.751 923.779 812.751" stroke="#4E7FF3" stroke-miterlimit="10"/>
<path d="M475.566 -86.4492C532.823 -93.1492 592.763 -80.3492 640.626 -51.4492C688.49 -22.4492 723.828 22.5508 738.254 72.5508C750.331 114.651 747.759 158.851 744.963 202.251C742.168 245.651 739.372 289.851 750.89 332.051C762.409 374.251 790.59 415.151 834.763 433.351C901.189 460.851 980.029 430.751 1052.05 442.551C1127.2 454.751 1187.92 517.751 1190.49 585.951C1193.06 654.151 1137.15 720.651 1063.12 737.351C1033.15 744.151 1001.39 743.451 972.089 752.251C942.79 761.051 914.944 784.151 917.74 811.651" stroke="#497CF2" stroke-miterlimit="10"/>
</g>
</g>
</svg>
