<svg width="157" height="51" viewBox="0 0 157 51" fill="none" xmlns="http://www.w3.org/2000/svg">
<g clip-path="url(#clip0_1_85)">
<path d="M31.206 44.5309C32.0401 42.9329 30.8951 42.3143 28.1781 42.3143L23.6357 42.3176C22.6479 42.3155 22.4398 42.2472 22.6598 41.8334L22.9864 41.2181C23.1858 40.8189 23.4768 40.7418 24.4663 40.7408L30.417 40.7387C31.6457 40.7375 32.1644 40.8784 32.8284 41.1006L33.4187 38.9182L21.5487 38.9197C19.2847 38.9185 17.5264 39.8107 16.6274 41.532L15.3508 43.9881C14.3665 45.8199 15.0734 46.3651 17.6183 46.3657L22.8383 46.3669C23.8369 46.366 24.0007 46.4522 23.789 46.8505L23.3912 47.6049C23.1837 48.0135 22.926 48.0809 21.933 48.0821H15.7493C14.4758 48.0815 13.9729 47.8772 13.4556 47.6726L12.8188 49.9102L24.3685 49.9078C27.4411 49.906 28.8784 48.9394 29.7869 47.2169L31.206 44.5306V44.5309ZM62.1892 45.1223C63.6684 45.1214 64.318 45.2798 64.9307 45.4174L66.1979 43.0192C65.4382 43.1479 64.6286 43.3057 63.156 43.3045L58.5874 43.3042L59.951 40.736L65.1553 40.7333C66.661 40.7357 67.31 40.8826 67.9226 41.025L68.5146 38.9133L53.9822 38.9121C54.0796 39.3462 54.0566 39.7536 53.5127 40.7964L49.7199 48.0102C49.3738 48.6607 49.0776 49.0614 48.7744 49.3802C48.387 48.7967 48.1013 48.1316 47.9138 47.6526L45.8719 42.1567L50.11 39.998C51.3186 39.3745 51.9818 39.1887 52.8851 38.9121L47.0315 38.9146C46.9843 39.0554 46.9487 39.189 46.8768 39.3256C46.684 39.6932 46.3721 39.9598 45.3577 40.5171L39.2185 43.847L40.8182 40.7982C41.3665 39.7524 41.7965 39.3478 42.3382 38.9127L34.8804 38.917C34.9806 39.3493 34.9695 39.7542 34.4176 40.7982L30.6248 48.0147C30.0775 49.0581 29.6555 49.4637 29.1093 49.9081L36.5517 49.9087C36.4742 49.4643 36.4749 49.0554 37.018 48.0135L37.8929 46.3651L39.9998 45.2458L41.3005 49.9054L62.9828 49.9008L64.6775 47.784C63.9471 47.9182 63.1333 48.0745 61.6475 48.0754H56.0782L57.6402 45.1226L62.1888 45.1217L62.1892 45.1223ZM81.3615 47.2321C81.3615 47.2321 79.3371 47.6438 76.794 47.6431C76.794 47.6431 74.3109 47.6489 73.7968 47.6425C73.1471 47.6395 72.9484 47.4844 73.1946 46.9443C73.4391 46.4037 75.9124 41.7836 75.9124 41.7836C75.9994 41.617 76.3092 41.1607 77.1066 41.1607L81.8093 41.1619C82.979 41.1592 84.029 41.5031 84.029 41.5031L84.7764 38.9747L84.7383 38.9774L84.7603 38.9094L74.6829 38.9106C71.9428 38.9106 69.975 39.7676 68.7253 42.1418L66.346 46.6714C65.0959 49.0311 66.1752 49.9011 68.8947 49.9011L79.2407 49.8975L81.3618 47.2321H81.3615ZM99.6641 48.0014L103.463 40.7864C104.006 39.7448 104.438 39.3387 104.97 38.9045L97.5227 38.9076C97.6138 39.3396 97.6093 39.7448 97.056 40.7876L95.741 43.3012L90.9597 43.3006L92.2873 40.7897C92.843 39.743 93.2615 39.338 93.8102 38.9067L86.3562 38.9103C86.4481 39.3414 86.439 39.7445 85.8773 40.7906L82.0911 48.0071C81.5361 49.0444 81.1121 49.4582 80.561 49.8978L88.016 49.8953C87.9308 49.4567 87.9339 49.046 88.4955 48.005L90.016 45.1183L94.7826 45.1162L93.2664 48.0041C92.7159 49.0441 92.2901 49.4543 91.7473 49.8956L99.1894 49.8947C99.1004 49.4549 99.1112 49.0435 99.6645 48.0008L99.6641 48.0014ZM113.102 48.0669L107.549 48.066L109.096 45.115L113.661 45.1141C115.123 45.112 115.788 45.2695 116.393 45.4064L117.659 43.0103C116.896 43.1412 116.09 43.2978 114.629 43.2969L110.052 43.2963L111.411 40.7245L116.627 40.7235C118.133 40.7248 118.777 40.8741 119.391 41.0141L119.975 38.9027L105.45 38.9058C105.535 39.339 105.525 39.7442 104.971 40.7897L101.186 48.0011C100.629 49.0438 100.198 49.4543 99.6648 49.8938L114.449 49.8914L116.141 47.7749C115.424 47.9133 114.594 48.0694 113.102 48.0666V48.0669ZM131.933 41.3355L131.238 42.6779C130.958 43.2098 130.677 43.2945 129.849 43.2951L126.234 43.296L127.606 40.7248L131.207 40.7223C132.027 40.7208 132.223 40.8016 131.933 41.3355H131.933ZM133.779 45.1108C135.182 45.0488 136.431 44.9605 137.285 43.3485L138.343 41.3246C139.312 39.4825 138.203 38.9 135.269 38.9L121.473 38.9021C121.719 39.3371 121.711 39.7397 121.156 40.787L117.366 48.0014C116.817 49.0429 116.397 49.4512 115.839 49.8926L123.291 49.8911C123.204 49.4512 123.21 49.0405 123.76 47.9998L125.272 45.1138L127.245 45.1111L127.772 49.8902L134.931 49.8911C134.587 49.4737 134.58 48.9039 134.434 48.2032L133.779 45.1108H133.779ZM145.658 41.198C145.874 40.7985 146.151 40.7187 147.155 40.7166L153.1 40.7181C154.337 40.7196 154.835 40.8598 155.508 41.0802L156.334 38.8933L144.219 38.8994C141.962 38.8988 140.214 39.7898 139.305 41.5116L138.03 43.9678C137.051 45.8011 137.759 46.3466 140.299 46.3466L145.52 46.3454C146.511 46.3445 146.69 46.4298 146.47 46.8317L146.073 47.5849C145.866 47.9929 145.615 48.0618 144.602 48.063L138.423 48.0642C137.174 48.0642 136.646 47.8578 136.125 47.6535L135.507 49.8893L147.042 49.8878C150.119 49.8862 151.56 48.9157 152.472 47.193L153.886 44.5097C154.728 42.912 153.586 42.2936 150.855 42.2948L146.315 42.2954C145.314 42.2948 145.112 42.2293 145.335 41.8128L145.658 41.1983L145.658 41.198ZM154.216 49.6379H154.52C154.757 49.6379 154.865 49.5787 154.865 49.4603C154.865 49.3377 154.763 49.283 154.548 49.283H154.216V49.6379ZM154.587 49.107C154.927 49.107 155.11 49.2248 155.11 49.4436C155.11 49.5502 155.074 49.6079 154.961 49.6926L154.967 49.7505L155.029 49.8146C155.041 49.827 155.049 49.8501 155.061 49.8902C155.074 49.9189 155.082 49.9494 155.083 49.9803L155.096 50.0632L155.103 50.1394L155.11 50.1877C155.11 50.2105 155.11 50.2159 155.137 50.2873H154.893C154.865 50.2332 154.859 50.2217 154.85 50.0924C154.832 49.845 154.79 49.8031 154.52 49.8031H154.222V50.2815H153.963V49.107H154.587H154.587ZM153.435 49.7093C153.435 50.2287 153.924 50.6531 154.527 50.6531C154.815 50.6518 155.09 50.5519 155.293 50.3751C155.496 50.1984 155.61 49.959 155.611 49.7093C155.611 49.1835 155.128 48.7645 154.527 48.7645C153.924 48.7645 153.435 49.1835 153.435 49.7093ZM155.854 49.7093C155.854 50.3404 155.259 50.8531 154.527 50.8531C153.788 50.8531 153.192 50.3404 153.192 49.7093C153.192 49.0721 153.788 48.5572 154.527 48.5572C154.879 48.5573 155.216 48.6786 155.465 48.8946C155.714 49.1106 155.854 49.4036 155.854 49.7093Z" fill="#062849"/>
<path d="M77.7577 11.8205L76.3931 13.9491H72.15C74.3096 15.3589 74.8915 17.5061 74.8929 18.7665C74.8967 20.2634 74.3201 21.9282 73.194 23.7235C69.1354 30.1744 64.8878 32.4023 55.7045 32.8905L55.6654 32.8929C51.3326 33.0656 44.836 33.0656 38.2087 33.0656C31.5815 33.0656 21.6951 33.0538 19.4678 32.9572C15.0972 32.7696 11.5294 32.2487 9.84129 29.8347C8.09139 27.3333 9.39526 24.4138 10.1246 23.1838C10.5374 22.4877 11.9803 20.2255 11.9803 20.2255H18.3955C15.252 18.5194 13.8129 14.8101 16.1133 10.873C18.7664 6.3307 21.6225 3.22394 28.431 2.1153C32.5315 1.42528 42.0473 1.42802 46.1105 1.42802L67.6747 1.49571C70.6282 1.52243 76.6861 1.61927 78.8544 5.41543C80.1925 7.75778 78.9009 10.0926 77.7577 11.8208V11.8205ZM85.8208 3.94857C83.7719 1.30234 79.4967 0.0625521 72.7267 0.0625521C65.7383 0.0625521 49.5642 0.000623499 45.0015 0.000623499C40.2538 0.000623499 30.0136 -0.0515907 24.547 0.799624C16.2981 2.08312 11.8664 6.11 9.71624 10.1129C8.2112 12.9142 6.93668 17.5085 10.2849 20.2737H4.63387C4.63387 20.2737 3.0443 22.2588 2.17669 23.6913C0.49945 26.4629 0.0820606 29.7288 2.77431 31.8104C4.75123 33.3376 8.7194 34.4696 14.1741 34.4696L54.3608 34.4736C69.0669 34.4736 74.4752 31.7509 79.4699 24.7456C80.8586 22.7985 83.7719 17.3503 78.1845 14.1282H83.3902L85.2103 11.3499C87.2937 8.1928 87.5253 6.14946 85.8212 3.94887" fill="#B2B1B1"/>
<path d="M31.2105 22.0049L30.9922 22.4569C29.7834 24.8998 33.1875 24.8801 35.638 24.8925L48.4398 24.7984C51.0437 24.7201 53.4153 24.7353 54.6042 22.4809C55.7265 20.3444 52.9916 20.1474 50.4883 20.1474C50.4883 20.1474 35.9216 20.2193 29.7715 19.8693C22.5138 19.5141 21.4698 17.18 24.073 12.2333C26.1369 8.31598 28.5745 5.62725 35.1616 4.55625C39.5978 3.80795 48.2005 3.76697 52.577 3.76697L60.6077 3.84559C65.2492 3.88475 70.4573 3.92422 71.537 7.05131C71.9774 8.59102 70.9614 10.4128 70.1444 12.0769H58.8337C59.703 10.0961 58.2259 9.66081 55.7101 9.5837C52.1027 9.52298 45.4199 9.55 41.2453 9.74004C39.1573 9.82109 36.8301 10.1356 35.9978 11.7184C34.6415 14.2903 38.8828 14.0095 41.4469 14.089L56.628 14.2107C65.4382 14.2107 69.9848 15.3971 66.3795 22.2435C62.9632 28.7299 58.2479 29.9193 49.2438 30.3905C42.9467 30.6928 32.6859 30.7687 27.2584 30.5514C20.1482 30.2669 15.8223 29.6012 18.9889 23.5884L19.823 22.0049H31.2105Z" fill="#062849"/>
</g>
<defs>
<clipPath id="clip0_1_85">
<rect width="155.429" height="51" fill="white" transform="translate(0.836121)"/>
</clipPath>
</defs>
</svg>
