<svg width="123" height="22" viewBox="0 0 123 22" fill="none" xmlns="http://www.w3.org/2000/svg">
<path d="M5.67356 16.5723C4.69131 16.5723 3.80325 16.4042 3.00937 16.0678C2.22896 15.7314 1.61 15.247 1.15252 14.6146C0.695032 13.9822 0.459561 13.2354 0.446106 12.3742H3.47359C3.51395 12.9528 3.71579 13.4103 4.07908 13.7467C4.45584 14.0831 4.96715 14.2513 5.61301 14.2513C6.27233 14.2513 6.79036 14.0965 7.16712 13.7871C7.54387 13.4641 7.73225 13.047 7.73225 12.5357C7.73225 12.1186 7.60442 11.7755 7.34877 11.5064C7.09311 11.2372 6.77018 11.0287 6.37997 10.8807C6.00322 10.7192 5.47845 10.5443 4.80568 10.3559C3.89071 10.0868 3.14393 9.82442 2.56534 9.56877C2.00021 9.29966 1.50909 8.90272 1.09197 8.37796C0.688305 7.83974 0.486472 7.1266 0.486472 6.23854C0.486472 5.4043 0.695032 4.6777 1.11215 4.05875C1.52927 3.4398 2.11459 2.96886 2.86809 2.64593C3.6216 2.30954 4.48275 2.14135 5.45154 2.14135C6.90474 2.14135 8.08209 2.49792 8.98361 3.21106C9.89858 3.91074 10.4032 4.89299 10.4973 6.15781H7.38913C7.36222 5.67341 7.15366 5.27647 6.76345 4.967C6.3867 4.64407 5.88212 4.4826 5.24971 4.4826C4.69804 4.4826 4.25401 4.62388 3.91762 4.90645C3.59469 5.18901 3.43322 5.5994 3.43322 6.13762C3.43322 6.51438 3.55432 6.83058 3.79652 7.08623C4.05217 7.32843 4.36165 7.53026 4.72495 7.69173C5.1017 7.83974 5.62646 8.01466 6.29924 8.21649C7.21421 8.4856 7.96099 8.75471 8.53958 9.02382C9.11816 9.29293 9.61601 9.6966 10.0331 10.2348C10.4503 10.773 10.6588 11.4794 10.6588 12.3541C10.6588 13.1076 10.4637 13.8072 10.0735 14.4531C9.68329 15.099 9.11143 15.617 8.35793 16.0072C7.60442 16.384 6.70963 16.5723 5.67356 16.5723Z" fill="#111D31"/>
<path d="M24.2699 5.24956V16.4311H21.424V15.0182C21.0607 15.5026 20.5831 15.8861 19.991 16.1687C19.4124 16.4378 18.78 16.5723 18.0938 16.5723C17.2192 16.5723 16.4455 16.3907 15.7727 16.0274C15.1 15.6506 14.5685 15.1057 14.1783 14.3926C13.8015 13.666 13.6131 12.8048 13.6131 11.8091V5.24956H16.4388V11.4054C16.4388 12.2935 16.6608 12.9797 17.1048 13.4641C17.5489 13.9351 18.1544 14.1705 18.9213 14.1705C19.7017 14.1705 20.314 13.9351 20.758 13.4641C21.202 12.9797 21.424 12.2935 21.424 11.4054V5.24956H24.2699Z" fill="#111D31"/>
<path d="M30.489 6.86422C30.8523 6.35291 31.3501 5.92906 31.9825 5.59268C32.6284 5.24283 33.3617 5.06791 34.1825 5.06791C35.1378 5.06791 35.999 5.30338 36.766 5.77433C37.5464 6.24527 38.1586 6.91804 38.6026 7.79265C39.0601 8.6538 39.2889 9.65623 39.2889 10.7999C39.2889 11.9437 39.0601 12.9595 38.6026 13.8476C38.1586 14.7222 37.5464 15.4017 36.766 15.8861C35.999 16.3705 35.1378 16.6127 34.1825 16.6127C33.3617 16.6127 32.6351 16.4445 32.0027 16.1081C31.3838 15.7717 30.8792 15.3479 30.489 14.8366V21.7594H27.6633V5.24956H30.489V6.86422ZM36.4027 10.7999C36.4027 10.1272 36.2614 9.54859 35.9788 9.06419C35.7097 8.56634 35.3464 8.18958 34.8889 7.93393C34.4449 7.67827 33.9605 7.55045 33.4357 7.55045C32.9244 7.55045 32.44 7.685 31.9825 7.95411C31.5385 8.20977 31.1752 8.58652 30.8926 9.08437C30.6235 9.58222 30.489 10.1675 30.489 10.8403C30.489 11.5131 30.6235 12.0984 30.8926 12.5963C31.1752 13.0941 31.5385 13.4776 31.9825 13.7467C32.44 14.0023 32.9244 14.1302 33.4357 14.1302C33.9605 14.1302 34.4449 13.9956 34.8889 13.7265C35.3464 13.4574 35.7097 13.0739 35.9788 12.5761C36.2614 12.0782 36.4027 11.4862 36.4027 10.7999Z" fill="#111D31"/>
<path d="M44.7733 6.86422C45.1366 6.35291 45.6345 5.92906 46.2669 5.59268C46.9128 5.24283 47.6461 5.06791 48.4669 5.06791C49.4222 5.06791 50.2834 5.30338 51.0503 5.77433C51.8307 6.24527 52.443 6.91804 52.887 7.79265C53.3445 8.6538 53.5732 9.65623 53.5732 10.7999C53.5732 11.9437 53.3445 12.9595 52.887 13.8476C52.443 14.7222 51.8307 15.4017 51.0503 15.8861C50.2834 16.3705 49.4222 16.6127 48.4669 16.6127C47.6461 16.6127 46.9195 16.4445 46.2871 16.1081C45.6681 15.7717 45.1635 15.3479 44.7733 14.8366V21.7594H41.9477V5.24956H44.7733V6.86422ZM50.687 10.7999C50.687 10.1272 50.5457 9.54859 50.2632 9.06419C49.9941 8.56634 49.6308 8.18958 49.1733 7.93393C48.7292 7.67827 48.2449 7.55045 47.7201 7.55045C47.2088 7.55045 46.7244 7.685 46.2669 7.95411C45.8229 8.20977 45.4596 8.58652 45.177 9.08437C44.9079 9.58222 44.7733 10.1675 44.7733 10.8403C44.7733 11.5131 44.9079 12.0984 45.177 12.5963C45.4596 13.0941 45.8229 13.4776 46.2669 13.7467C46.7244 14.0023 47.2088 14.1302 47.7201 14.1302C48.2449 14.1302 48.7292 13.9956 49.1733 13.7265C49.6308 13.4574 49.9941 13.0739 50.2632 12.5761C50.5457 12.0782 50.687 11.4862 50.687 10.7999Z" fill="#111D31"/>
<path d="M59.0577 1.49548V16.4311H56.232V1.49548H59.0577Z" fill="#111D31"/>
<path d="M73.152 5.24956L66.2292 21.7191H63.2219L65.6439 16.1485L61.1632 5.24956H64.332L67.2182 13.0605L70.1447 5.24956H73.152Z" fill="#111D31"/>
<path d="M89.1668 5.0881C90.5392 5.0881 91.6426 5.51194 92.4768 6.35964C93.3245 7.19388 93.7484 8.3645 93.7484 9.87152V16.4311H90.9227V10.255C90.9227 9.38039 90.7007 8.71435 90.2567 8.25686C89.8127 7.78592 89.2072 7.55045 88.4402 7.55045C87.6732 7.55045 87.061 7.78592 86.6035 8.25686C86.1595 8.71435 85.9375 9.38039 85.9375 10.255V16.4311H83.1118V10.255C83.1118 9.38039 82.8898 8.71435 82.4458 8.25686C82.0017 7.78592 81.3962 7.55045 80.6293 7.55045C79.8489 7.55045 79.2299 7.78592 78.7724 8.25686C78.3284 8.71435 78.1064 9.38039 78.1064 10.255V16.4311H75.2807V5.24956H78.1064V6.60184C78.4697 6.1309 78.9339 5.76087 79.499 5.49176C80.0776 5.22265 80.71 5.0881 81.3962 5.0881C82.2709 5.0881 83.0513 5.27647 83.7375 5.65323C84.4237 6.01652 84.9552 6.54129 85.332 7.22752C85.6953 6.58165 86.22 6.06362 86.9063 5.67341C87.606 5.2832 88.3595 5.0881 89.1668 5.0881Z" fill="#111D31"/>
<path d="M98.4683 3.91747C97.9704 3.91747 97.5533 3.76273 97.2169 3.45326C96.894 3.13032 96.7325 2.73339 96.7325 2.26245C96.7325 1.7915 96.894 1.40129 97.2169 1.09182C97.5533 0.768888 97.9704 0.607422 98.4683 0.607422C98.9661 0.607422 99.3765 0.768888 99.6994 1.09182C100.036 1.40129 100.204 1.7915 100.204 2.26245C100.204 2.73339 100.036 3.13032 99.6994 3.45326C99.3765 3.76273 98.9661 3.91747 98.4683 3.91747ZM99.8609 5.24956V16.4311H97.0352V5.24956H99.8609Z" fill="#111D31"/>
<path d="M109.454 5.0881C110.786 5.0881 111.863 5.51194 112.684 6.35964C113.504 7.19388 113.915 8.3645 113.915 9.87152V16.4311H111.089V10.255C111.089 9.36694 110.867 8.68744 110.423 8.21649C109.979 7.7321 109.374 7.4899 108.607 7.4899C107.826 7.4899 107.207 7.7321 106.75 8.21649C106.306 8.68744 106.084 9.36694 106.084 10.255V16.4311H103.258V5.24956H106.084V6.6422C106.461 6.15781 106.938 5.78105 107.517 5.51194C108.109 5.22938 108.755 5.0881 109.454 5.0881Z" fill="#111D31"/>
<path d="M120.497 7.57063V12.9797C120.497 13.3565 120.585 13.6323 120.76 13.8072C120.948 13.9687 121.258 14.0494 121.688 14.0494H123V16.4311H121.224C118.842 16.4311 117.651 15.2739 117.651 12.9595V7.57063H116.319V5.24956H117.651V2.48446H120.497V5.24956H123V7.57063H120.497Z" fill="#111D31"/>
</svg>
