<svg width="134" height="24" viewBox="0 0 134 24" fill="none" xmlns="http://www.w3.org/2000/svg">
<path d="M6.11646 17.6282C5.05291 17.6282 4.09133 17.4461 3.23175 17.0819C2.38673 16.7177 1.71654 16.1932 1.22119 15.5084C0.72583 14.8237 0.470868 14.0151 0.456299 13.0826H3.73439C3.77809 13.7091 3.99663 14.2045 4.39 14.5687C4.79794 14.9329 5.35158 15.115 6.0509 15.115C6.76479 15.115 7.32571 14.9475 7.73365 14.6124C8.14159 14.2627 8.34556 13.8111 8.34556 13.2575C8.34556 12.8058 8.20715 12.4343 7.93034 12.1429C7.65352 11.8515 7.30386 11.6257 6.88135 11.4654C6.47341 11.2906 5.90521 11.1012 5.17674 10.8972C4.18603 10.6059 3.37744 10.3217 2.75096 10.0449C2.13905 9.75355 1.60727 9.32375 1.15562 8.75555C0.718546 8.17278 0.500007 7.40061 0.500007 6.43904C0.500007 5.53574 0.72583 4.749 1.17748 4.07882C1.62913 3.40863 2.26289 2.8987 3.07877 2.54904C3.89465 2.18481 4.82708 2.00269 5.87607 2.00269C7.44955 2.00269 8.72436 2.38878 9.7005 3.16095C10.6912 3.91855 11.2376 4.98211 11.3395 6.35162H7.97404C7.94491 5.82713 7.71908 5.39734 7.29657 5.06224C6.88863 4.71258 6.34229 4.53775 5.65753 4.53775C5.06019 4.53775 4.5794 4.69073 4.21517 4.99668C3.86551 5.30263 3.69068 5.747 3.69068 6.32977C3.69068 6.73771 3.8218 7.08009 4.08405 7.3569C4.36086 7.61915 4.69596 7.83769 5.08933 8.01252C5.49727 8.17278 6.06547 8.36218 6.79393 8.58072C7.78464 8.87211 8.59324 9.16349 9.21972 9.45488C9.8462 9.74626 10.3853 10.1833 10.8369 10.7661C11.2886 11.3489 11.5144 12.1138 11.5144 13.0608C11.5144 13.8767 11.3031 14.6343 10.8806 15.3336C10.4581 16.0329 9.83891 16.5938 9.02303 17.0163C8.20715 17.4243 7.2383 17.6282 6.11646 17.6282Z" fill="#111D31"/>
<path d="M26.2521 5.3682V17.4753H23.1707V15.9455C22.7773 16.47 22.2601 16.8852 21.6191 17.1912C20.9926 17.4825 20.3078 17.6282 19.5648 17.6282C18.6178 17.6282 17.7801 17.4316 17.0516 17.0382C16.3232 16.6302 15.7477 16.0402 15.3252 15.268C14.9172 14.4813 14.7132 13.5488 14.7132 12.4707V5.3682H17.7728V12.0336C17.7728 12.9952 18.0132 13.7382 18.494 14.2627C18.9748 14.7727 19.6304 15.0276 20.4608 15.0276C21.3058 15.0276 21.9687 14.7727 22.4495 14.2627C22.9303 13.7382 23.1707 12.9952 23.1707 12.0336V5.3682H26.2521Z" fill="#111D31"/>
<path d="M32.986 7.11651C33.3794 6.56288 33.9185 6.10394 34.6032 5.73971C35.3025 5.36091 36.0966 5.17151 36.9853 5.17151C38.0197 5.17151 38.9521 5.42647 39.7826 5.9364C40.6276 6.44632 41.2905 7.17479 41.7713 8.12179C42.2666 9.05422 42.5143 10.1396 42.5143 11.378C42.5143 12.6164 42.2666 13.7164 41.7713 14.678C41.2905 15.625 40.6276 16.3607 39.7826 16.8852C38.9521 17.4097 38.0197 17.6719 36.9853 17.6719C36.0966 17.6719 35.3098 17.4898 34.6251 17.1256C33.9549 16.7614 33.4085 16.3024 32.986 15.7488V23.2447H29.9265V5.3682H32.986V7.11651ZM39.3892 11.378C39.3892 10.6496 39.2362 10.0231 38.9303 9.49859C38.6389 8.95952 38.2455 8.55158 37.7502 8.27477C37.2694 7.99795 36.7449 7.85954 36.1767 7.85954C35.6231 7.85954 35.0986 8.00523 34.6032 8.29662C34.1224 8.57344 33.729 8.98138 33.4231 9.52044C33.1317 10.0595 32.986 10.6933 32.986 11.4217C32.986 12.1502 33.1317 12.784 33.4231 13.323C33.729 13.8621 34.1224 14.2773 34.6032 14.5687C35.0986 14.8455 35.6231 14.9839 36.1767 14.9839C36.7449 14.9839 37.2694 14.8382 37.7502 14.5468C38.2455 14.2555 38.6389 13.8402 38.9303 13.3012C39.2362 12.7621 39.3892 12.1211 39.3892 11.378Z" fill="#111D31"/>
<path d="M48.4528 7.11651C48.8462 6.56288 49.3852 6.10394 50.07 5.73971C50.7693 5.36091 51.5633 5.17151 52.452 5.17151C53.4865 5.17151 54.4189 5.42647 55.2494 5.9364C56.0944 6.44632 56.7573 7.17479 57.2381 8.12179C57.7334 9.05422 57.9811 10.1396 57.9811 11.378C57.9811 12.6164 57.7334 13.7164 57.2381 14.678C56.7573 15.625 56.0944 16.3607 55.2494 16.8852C54.4189 17.4097 53.4865 17.6719 52.452 17.6719C51.5633 17.6719 50.7766 17.4898 50.0918 17.1256C49.4216 16.7614 48.8753 16.3024 48.4528 15.7488V23.2447H45.3932V5.3682H48.4528V7.11651ZM54.856 11.378C54.856 10.6496 54.703 10.0231 54.397 9.49859C54.1057 8.95952 53.7123 8.55158 53.2169 8.27477C52.7362 7.99795 52.2117 7.85954 51.6435 7.85954C51.0898 7.85954 50.5653 8.00523 50.07 8.29662C49.5892 8.57344 49.1958 8.98138 48.8899 9.52044C48.5985 10.0595 48.4528 10.6933 48.4528 11.4217C48.4528 12.1502 48.5985 12.784 48.8899 13.323C49.1958 13.8621 49.5892 14.2773 50.07 14.5687C50.5653 14.8455 51.0898 14.9839 51.6435 14.9839C52.2117 14.9839 52.7362 14.8382 53.2169 14.5468C53.7123 14.2555 54.1057 13.8402 54.397 13.3012C54.703 12.7621 54.856 12.1211 54.856 11.378Z" fill="#111D31"/>
<path d="M63.9196 1.30337V17.4753H60.86V1.30337H63.9196Z" fill="#111D31"/>
<path d="M79.1806 5.3682L71.6847 23.201H68.4285L71.0509 17.1693L66.1994 5.3682H69.6304L72.7555 13.8257L75.9243 5.3682H79.1806Z" fill="#111D31"/>
<path d="M96.521 5.19337C98.007 5.19337 99.2017 5.6523 100.105 6.57016C101.023 7.47346 101.482 8.74098 101.482 10.3727V17.4753H98.4223V10.788C98.4223 9.84096 98.1819 9.11978 97.7011 8.62443C97.2203 8.1145 96.5647 7.85954 95.7342 7.85954C94.9038 7.85954 94.2409 8.1145 93.7455 8.62443C93.2647 9.11978 93.0244 9.84096 93.0244 10.788V17.4753H89.9648V10.788C89.9648 9.84096 89.7244 9.11978 89.2436 8.62443C88.7628 8.1145 88.1072 7.85954 87.2768 7.85954C86.4317 7.85954 85.7616 8.1145 85.2662 8.62443C84.7854 9.11978 84.545 9.84096 84.545 10.788V17.4753H81.4855V5.3682H84.545V6.83241C84.9384 6.32248 85.441 5.92183 86.053 5.63044C86.6794 5.33906 87.3642 5.19337 88.1072 5.19337C89.0542 5.19337 89.8992 5.39733 90.6423 5.80527C91.3853 6.19864 91.9608 6.76685 92.3687 7.50988C92.7621 6.81055 93.3303 6.24964 94.0733 5.82713C94.8309 5.40462 95.6468 5.19337 96.521 5.19337Z" fill="#111D31"/>
<path d="M106.592 3.92584C106.053 3.92584 105.602 3.75829 105.237 3.4232C104.888 3.07354 104.713 2.64374 104.713 2.13382C104.713 1.62389 104.888 1.20138 105.237 0.866291C105.602 0.516628 106.053 0.341797 106.592 0.341797C107.131 0.341797 107.576 0.516628 107.925 0.866291C108.29 1.20138 108.472 1.62389 108.472 2.13382C108.472 2.64374 108.29 3.07354 107.925 3.4232C107.576 3.75829 107.131 3.92584 106.592 3.92584ZM108.1 5.3682V17.4753H105.041V5.3682H108.1Z" fill="#111D31"/>
<path d="M118.488 5.19337C119.93 5.19337 121.096 5.6523 121.985 6.57016C122.873 7.47346 123.318 8.74098 123.318 10.3727V17.4753H120.258V10.788C120.258 9.82639 120.018 9.09065 119.537 8.58072C119.056 8.05623 118.4 7.79398 117.57 7.79398C116.725 7.79398 116.055 8.05623 115.559 8.58072C115.079 9.09065 114.838 9.82639 114.838 10.788V17.4753H111.779V5.3682H114.838V6.87612C115.246 6.35162 115.763 5.94368 116.39 5.6523C117.031 5.34634 117.73 5.19337 118.488 5.19337Z" fill="#111D31"/>
<path d="M130.445 7.8814V13.7382C130.445 14.1462 130.54 14.4449 130.729 14.6343C130.933 14.8091 131.268 14.8965 131.734 14.8965H133.155V17.4753H131.232C128.653 17.4753 127.364 16.2223 127.364 13.7164V7.8814H125.921V5.3682H127.364V2.37421H130.445V5.3682H133.155V7.8814H130.445Z" fill="#111D31"/>
</svg>
