<svg width="5" height="3" viewBox="0 0 5 3" fill="none" xmlns="http://www.w3.org/2000/svg">
<path d="M3.82683 0.567078H0.746763C0.644653 0.567078 0.546725 0.607641 0.474522 0.679844C0.402319 0.752047 0.361755 0.849975 0.361755 0.952086C0.361755 1.0542 0.402319 1.15212 0.474522 1.22433C0.546725 1.29653 0.644653 1.33709 0.746763 1.33709H3.82683C3.92894 1.33709 4.02687 1.37766 4.09907 1.44986C4.17127 1.52206 4.21183 1.61999 4.21183 1.7221C4.21183 1.82421 4.17127 1.92214 4.09907 1.99434C4.02687 2.06655 3.92894 2.10711 3.82683 2.10711C3.72472 2.10711 3.62679 2.14767 3.55459 2.21988C3.48238 2.29208 3.44182 2.39001 3.44182 2.49212C3.44182 2.59423 3.48238 2.69216 3.55459 2.76436C3.62679 2.83656 3.72472 2.87713 3.82683 2.87713C4.13316 2.87713 4.42694 2.75544 4.64355 2.53883C4.86016 2.32222 4.98185 2.02843 4.98185 1.7221C4.98185 1.41577 4.86016 1.12199 4.64355 0.905376C4.42694 0.688767 4.13316 0.567078 3.82683 0.567078Z" fill="#666AF6"/>
</svg>
