<svg width="8" height="3" viewBox="0 0 8 3" fill="none" xmlns="http://www.w3.org/2000/svg">
<path d="M0.781279 2.7972H6.13674C6.44307 2.7972 6.73686 2.67551 6.95346 2.4589C7.17007 2.24229 7.29176 1.94851 7.29176 1.64218C7.29176 1.33584 7.17007 1.04206 6.95346 0.825451C6.73686 0.608842 6.44307 0.487152 6.13674 0.487152C6.03463 0.487152 5.9367 0.527715 5.8645 0.599918C5.79229 0.672121 5.75173 0.77005 5.75173 0.87216C5.75173 0.97427 5.79229 1.0722 5.8645 1.1444C5.9367 1.2166 6.03463 1.25717 6.13674 1.25717C6.23885 1.25717 6.33678 1.29773 6.40898 1.36993C6.48118 1.44214 6.52175 1.54007 6.52175 1.64218C6.52175 1.74429 6.48118 1.84221 6.40898 1.91442C6.33678 1.98662 6.23885 2.02718 6.13674 2.02718H0.781279C0.679168 2.02718 0.58124 2.06775 0.509037 2.13995C0.436834 2.21215 0.396271 2.31008 0.396271 2.41219C0.396271 2.5143 0.436834 2.61223 0.509037 2.68443C0.58124 2.75664 0.679168 2.7972 0.781279 2.7972Z" fill="#666AF6"/>
</svg>
