<svg width="10" height="9" viewBox="0 0 10 9" fill="none" xmlns="http://www.w3.org/2000/svg">
<path d="M9.91214 3.33202C9.91101 2.77747 9.73885 2.23677 9.41913 1.78367C9.09941 1.33056 8.6477 0.987118 8.12561 0.800176C7.60352 0.613235 7.03647 0.591898 6.50181 0.739078C5.96715 0.886257 5.49091 1.19479 5.13804 1.62258C4.82307 1.48163 4.48208 1.40818 4.13702 1.40698C3.46417 1.40398 2.81453 1.65278 2.31582 2.10447C1.81711 2.55616 1.5054 3.17807 1.44196 3.84793L1.33031 3.89028L1.22251 3.94418H1.18786C1.10853 3.98215 1.0314 4.02457 0.956854 4.07123L0.818251 4.17133C0.752695 4.22067 0.689727 4.27336 0.629597 4.32919L0.506395 4.45624C0.450244 4.51743 0.397545 4.5817 0.348541 4.64874C0.313891 4.69494 0.27924 4.74115 0.248439 4.7912C0.194321 4.87799 0.176898 4.98273 0.200003 5.08237C0.223108 5.18201 0.284848 5.26839 0.371642 5.32251C0.458436 5.37663 0.563173 5.39405 0.662813 5.37094C0.762453 5.34784 0.848834 5.2861 0.902953 5.19931L0.968404 5.1069C1.00077 5.06273 1.03547 5.02032 1.07236 4.97985L1.15321 4.89515C1.19975 4.85271 1.24859 4.81287 1.29951 4.7758L1.37266 4.7219C1.42243 4.69206 1.47385 4.66507 1.52667 4.64104L1.58057 4.61409L1.62292 4.59099C1.69421 4.56237 1.76757 4.5392 1.84237 4.52169H1.89627C1.98455 4.50369 2.06371 4.45531 2.11999 4.38496C2.17627 4.31461 2.2061 4.22675 2.20428 4.13668V4.10203C2.20428 3.59148 2.4071 3.10184 2.76811 2.74082C3.12913 2.37981 3.61877 2.17699 4.12932 2.17699C4.63987 2.17699 5.12951 2.37981 5.49053 2.74082C5.85154 3.10184 6.05436 3.59148 6.05436 4.10203C6.05436 4.10203 6.05436 4.14053 6.05436 4.14823C6.05319 4.20598 6.06503 4.26324 6.08899 4.31579C6.11296 4.36834 6.14844 4.41483 6.19281 4.4518C6.23718 4.48877 6.2893 4.51529 6.34531 4.52939C6.40132 4.54349 6.45978 4.5448 6.51637 4.53324C6.76422 4.48257 7.02074 4.49374 7.26325 4.56576C7.50575 4.63778 7.72679 4.76844 7.90681 4.94617C8.08683 5.12391 8.22029 5.34326 8.2954 5.58483C8.37051 5.8264 8.38496 6.08275 8.33746 6.33123V6.36973V6.41593C8.32229 6.47873 8.30299 6.54047 8.2797 6.60073L8.2412 6.69314C8.21038 6.75805 8.17566 6.82105 8.13725 6.88179L8.10645 6.93184L8.07565 6.96649C7.92942 7.1565 7.74086 7.30974 7.52496 7.41401C7.30906 7.51828 7.07181 7.5707 6.83207 7.5671H4.13702C4.03491 7.5671 3.93698 7.60767 3.86478 7.67987C3.79257 7.75207 3.75201 7.85 3.75201 7.95211C3.75201 8.05422 3.79257 8.15215 3.86478 8.22435C3.93698 8.29656 4.03491 8.33712 4.13702 8.33712H6.83207C7.1771 8.33742 7.51773 8.25965 7.82843 8.10963C8.13914 7.95961 8.41188 7.74123 8.62621 7.47085L8.67626 7.41695L8.71476 7.3592L8.79177 7.23985C8.84016 7.16299 8.88388 7.08327 8.92267 7.00114C8.94577 6.95494 8.96502 6.90874 8.98042 6.86254C9.01761 6.76321 9.04848 6.66162 9.07282 6.55838C9.07282 6.52373 9.07282 6.48908 9.09592 6.45828C9.17076 6.08002 9.14689 5.68886 9.02662 5.32251C9.30463 5.07063 9.52699 4.76348 9.67947 4.42073C9.83195 4.07797 9.9112 3.70716 9.91214 3.33202ZM8.65316 4.61024C8.43758 4.33262 8.16148 4.10786 7.8459 3.95307C7.53032 3.79828 7.18357 3.71755 6.83207 3.71702H6.80512C6.67934 3.05514 6.32337 2.45912 5.80025 2.03454C6.14811 1.6808 6.61911 1.47503 7.11501 1.46013C7.61091 1.44523 8.09341 1.62236 8.46187 1.95458C8.83034 2.2868 9.05632 2.74844 9.09268 3.24323C9.12903 3.73802 8.97296 4.22774 8.65701 4.61024H8.65316Z" fill="#666AF6"/>
</svg>
