<svg width="11" height="12" viewBox="0 0 11 12" fill="none" xmlns="http://www.w3.org/2000/svg">
<path d="M10.1992 8.32007L9.26627 7.78281L10.0034 7.58707C10.0579 7.57438 10.1092 7.55087 10.1544 7.51794C10.1995 7.485 10.2376 7.44331 10.2663 7.39535C10.295 7.34739 10.3138 7.29414 10.3215 7.23878C10.3291 7.18342 10.3256 7.12707 10.3111 7.0731C10.2965 7.01913 10.2713 6.96864 10.2368 6.92464C10.2023 6.88064 10.1594 6.84402 10.1105 6.81697C10.0615 6.78993 10.0077 6.77301 9.9521 6.76721C9.8965 6.76142 9.84031 6.76688 9.78687 6.78326L8.2459 7.19974L6.49669 6.18353L8.2459 5.17149L9.78687 5.58797C9.89204 5.61247 10.0026 5.59517 10.0953 5.53971C10.1879 5.48425 10.2554 5.39497 10.2835 5.2907C10.3116 5.18644 10.2981 5.07533 10.2458 4.98083C10.1936 4.88633 10.1067 4.81582 10.0034 4.78417L9.26627 4.58842L10.1992 4.05117C10.249 4.02513 10.2929 3.98929 10.3285 3.94582C10.3641 3.90234 10.3905 3.85212 10.4061 3.79817C10.4218 3.74423 10.4263 3.68767 10.4196 3.63191C10.4128 3.57615 10.3948 3.52234 10.3667 3.47371C10.3386 3.42508 10.3009 3.38264 10.256 3.34894C10.2111 3.31524 10.1598 3.29097 10.1052 3.27761C10.0507 3.26425 9.99397 3.26206 9.93854 3.27117C9.88312 3.28029 9.83011 3.30052 9.78271 3.33066L8.8498 3.86792L9.04554 3.13075C9.06192 3.07731 9.06738 3.02112 9.06159 2.96553C9.0558 2.90993 9.03887 2.85607 9.01183 2.80716C8.98478 2.75824 8.94817 2.71527 8.90417 2.68081C8.86016 2.64634 8.80967 2.62108 8.7557 2.60654C8.70173 2.592 8.64539 2.58847 8.59002 2.59617C8.53466 2.60386 8.48141 2.62262 8.43346 2.65133C8.3855 2.68003 8.34381 2.7181 8.31087 2.76326C8.27793 2.80842 8.25442 2.85974 8.24174 2.91418L7.82526 4.45515L6.08022 5.46303V3.43894L7.20887 2.31029C7.2771 2.23061 7.31276 2.12813 7.30871 2.02331C7.30466 1.91849 7.26121 1.81906 7.18703 1.74489C7.11286 1.67072 7.01343 1.62727 6.90861 1.62322C6.8038 1.61917 6.70131 1.65482 6.62164 1.72305L6.08022 2.26447V1.1858C6.08022 1.07534 6.03634 0.969406 5.95823 0.891301C5.88013 0.813196 5.77419 0.769318 5.66374 0.769318C5.55328 0.769318 5.44735 0.813196 5.36924 0.891301C5.29114 0.969406 5.24726 1.07534 5.24726 1.1858V2.26447L4.71 1.72305C4.63033 1.65482 4.52784 1.61917 4.42303 1.62322C4.31821 1.62727 4.21878 1.67072 4.14461 1.74489C4.07044 1.81906 4.02698 1.91849 4.02293 2.02331C4.01889 2.12813 4.05454 2.23061 4.12277 2.31029L5.24726 3.43894V5.45886L3.49805 4.44682L3.08157 2.90585C3.06889 2.85141 3.04538 2.80009 3.01244 2.75493C2.97951 2.70977 2.93782 2.6717 2.88986 2.643C2.8419 2.61429 2.78865 2.59553 2.73329 2.58784C2.67792 2.58014 2.62158 2.58367 2.56761 2.59821C2.51364 2.61275 2.46315 2.63801 2.41915 2.67248C2.37514 2.70694 2.33853 2.74991 2.31148 2.79883C2.28444 2.84774 2.26751 2.9016 2.26172 2.9572C2.25593 3.01279 2.26139 3.06898 2.27777 3.12242L2.47352 3.85959L1.54477 3.32233C1.44959 3.27254 1.33885 3.26145 1.23568 3.29138C1.13252 3.32131 1.0449 3.38994 0.991147 3.48294C0.93739 3.57594 0.921645 3.68611 0.947201 3.79045C0.972757 3.89478 1.03764 3.98521 1.12829 4.04284L2.0612 4.58009L1.32404 4.77584C1.2696 4.78852 1.21827 4.81203 1.17311 4.84497C1.12795 4.87791 1.08989 4.9196 1.06118 4.96756C1.03247 5.01552 1.01372 5.06876 1.00602 5.12413C0.998327 5.17949 1.00186 5.23583 1.0164 5.2898C1.03094 5.34377 1.05619 5.39426 1.09066 5.43827C1.12513 5.48227 1.1681 5.51888 1.21701 5.54593C1.26593 5.57298 1.31979 5.5899 1.37538 5.59569C1.43097 5.60148 1.48716 5.59602 1.5406 5.57964L3.08157 5.16316L4.83078 6.18353L3.08157 7.19558L1.5406 6.7791C1.48716 6.76272 1.43097 6.75726 1.37538 6.76305C1.31979 6.76884 1.26593 6.78576 1.21701 6.81281C1.1681 6.83986 1.12513 6.87647 1.09066 6.92047C1.05619 6.96448 1.03094 7.01497 1.0164 7.06894C1.00186 7.12291 0.998327 7.17925 1.00602 7.23461C1.01372 7.28998 1.03247 7.34322 1.06118 7.39118C1.08989 7.43914 1.12795 7.48083 1.17311 7.51377C1.21827 7.54671 1.2696 7.57022 1.32404 7.5829L2.0612 7.77865L1.12829 8.32007C1.03764 8.3777 0.972757 8.46812 0.947201 8.57245C0.921645 8.67679 0.93739 8.78696 0.991147 8.87996C1.0449 8.97296 1.13252 9.0416 1.23568 9.07153C1.33885 9.10146 1.44959 9.09037 1.54477 9.04058L2.47768 8.50332L2.28194 9.24048C2.26555 9.29392 2.26009 9.35011 2.26589 9.40571C2.27168 9.4613 2.2886 9.51516 2.31565 9.56408C2.34269 9.61299 2.37931 9.65596 2.42331 9.69043C2.46731 9.72489 2.5178 9.75015 2.57177 9.76469C2.62574 9.77923 2.68209 9.78276 2.73745 9.77507C2.79281 9.76737 2.84606 9.74861 2.89402 9.71991C2.94198 9.6912 2.98367 9.65313 3.01661 9.60798C3.04955 9.56282 3.07306 9.51149 3.08574 9.45705L3.50222 7.91608L5.24726 6.90404V8.92396L4.1186 10.0526C4.05037 10.1323 4.01472 10.2348 4.01877 10.3396C4.02282 10.4444 4.06627 10.5438 4.14044 10.618C4.21462 10.6922 4.31404 10.7356 4.41886 10.7397C4.52368 10.7437 4.62617 10.7081 4.70584 10.6399L5.24726 10.1026V11.1813C5.24726 11.2917 5.29114 11.3977 5.36924 11.4758C5.44735 11.5539 5.55328 11.5978 5.66374 11.5978C5.77419 11.5978 5.88013 11.5539 5.95823 11.4758C6.03634 11.3977 6.08022 11.2917 6.08022 11.1813V10.1026L6.61747 10.6399C6.69715 10.7081 6.79963 10.7437 6.90445 10.7397C7.00927 10.7356 7.1087 10.6922 7.18287 10.618C7.25704 10.5438 7.30049 10.4444 7.30454 10.3396C7.30859 10.2348 7.27294 10.1323 7.20471 10.0526L6.08022 8.92813V6.90404L7.82942 7.91608L8.2459 9.45705C8.25859 9.51149 8.2821 9.56282 8.31503 9.60798C8.34797 9.65313 8.38966 9.6912 8.43762 9.71991C8.48558 9.74861 8.53883 9.76737 8.59419 9.77507C8.64955 9.78276 8.7059 9.77923 8.75987 9.76469C8.81384 9.75015 8.86433 9.72489 8.90833 9.69043C8.95233 9.65596 8.98895 9.61299 9.01599 9.56408C9.04304 9.51516 9.05996 9.4613 9.06575 9.40571C9.07155 9.35011 9.06609 9.29392 9.04971 9.24048L8.85396 8.50332L9.78687 9.04058C9.88205 9.09037 9.99279 9.10146 10.096 9.07153C10.1991 9.0416 10.2867 8.97296 10.3405 8.87996C10.3943 8.78696 10.41 8.67679 10.3844 8.57245C10.3589 8.46812 10.294 8.3777 10.2034 8.32007H10.1992Z" fill="#666AF6"/>
</svg>
